<svg width="145" height="124" viewBox="0 0 145 124" fill="none" xmlns="http://www.w3.org/2000/svg">
<g clip-path="url(#clip0)">
<path d="M102.172 34.7992L107.77 81.4061L66.0057 112.414L18.087 92.1775L12.4892 45.5704L54.2531 14.5625L102.172 34.7992Z" stroke="#FFDD67" stroke-width="2"/>
</g>
<path d="M90.007 63.0216C92.8756 70.8251 99.9224 75.8512 108.128 76.965C111.471 77.411 114.865 77.215 118.139 76.3868C121.355 75.5861 124.414 74.2209 127.186 72.3503C136.678 65.9231 141.204 54.3704 137.485 44.2258C133.884 34.4892 123.788 29.0551 113.062 30.1973C110.565 30.465 108.113 31.0733 105.769 32.0063C104.996 32.3184 104.236 32.6601 103.488 33.0314C100.309 34.613 97.4492 36.8102 95.0638 39.5047C89.2856 46.0596 87.0495 54.9804 90.007 63.0216Z" fill="#FFC702"/>
<path d="M107.591 57.7294C109.712 63.5728 112.635 69.0683 116.269 74.0457C116.871 74.8616 117.486 75.6478 118.115 76.4045C121.331 75.6038 124.39 74.2386 127.162 72.368C125.475 70.5933 123.934 68.6747 122.557 66.6324C119.979 62.8061 117.871 58.6621 116.279 54.2958C114.433 49.3455 113.281 44.1456 112.86 38.8556C112.63 35.9703 112.697 33.0677 113.062 30.1973C110.565 30.465 108.113 31.0732 105.769 32.0063C104.996 32.3184 104.236 32.6601 103.488 33.0313C103.362 35.9733 103.465 38.921 103.796 41.8457C104.42 47.2834 105.695 52.6192 107.591 57.7294Z" fill="#453C36"/>
<path d="M90.007 63.0215C92.8757 70.825 99.9224 75.8512 108.128 76.9649C106.958 75.6152 105.866 74.1939 104.86 72.7085C102.275 68.8798 100.161 64.7321 98.565 60.3613C96.7167 55.4115 95.5651 50.2114 95.1459 44.921C95.0114 43.119 94.9852 41.3101 95.0673 39.5047C89.2856 46.0596 87.0495 54.9804 90.007 63.0215Z" fill="#453C36"/>
<path d="M125.473 47.7126C125.275 49.4151 124.304 50.6921 123.309 50.5502C122.314 50.4083 121.668 48.9434 121.87 47.2408C122.071 45.5382 123.035 44.2577 124.034 44.4032C125.032 44.5486 125.672 46.0242 125.473 47.7126Z" fill="#744E32"/>
<path d="M136.729 48.4078C136.531 50.1103 135.56 51.3873 134.565 51.2454C133.57 51.1035 132.923 49.6386 133.125 47.936C133.327 46.2334 134.291 44.9529 135.286 45.0984C136.281 45.2438 136.927 46.7052 136.729 48.4078Z" fill="#744E32"/>
<path d="M90.1541 57.9777L84.8374 63.2095C84.7423 63.3614 84.6837 63.5347 84.6665 63.7149C84.6494 63.8951 84.6742 64.077 84.7388 64.2452C84.8035 64.4134 84.9061 64.563 85.0381 64.6816C85.1701 64.8001 85.3275 64.884 85.4973 64.9263L92.9304 64.976L90.1541 57.9777Z" fill="#453C36"/>
<path d="M131.248 34.8863C131.879 33.3462 132.691 31.8927 133.666 30.5589C134.477 29.4232 135.47 28.4405 136.603 27.6539C137.797 26.8224 139.222 26.4222 140.658 26.5153H140.743C140.827 26.5233 140.904 26.5654 140.957 26.6322C141.011 26.6991 141.036 26.7852 141.029 26.8718C141.021 26.9583 140.98 27.0382 140.916 27.0937C140.852 27.1492 140.768 27.176 140.685 27.168H140.61C139.311 27.0836 138.021 27.4465 136.941 28.2001C135.32 29.2643 134.031 31.0023 133.16 32.4566C132.725 33.1908 132.39 33.8754 132.168 34.3365C132.055 34.5777 131.973 34.7728 131.915 34.9041L131.854 35.0566V35.0956C131.838 35.1354 131.816 35.1717 131.787 35.2025C131.758 35.2332 131.724 35.2578 131.686 35.2747C131.648 35.2917 131.607 35.3007 131.566 35.3013C131.524 35.3019 131.483 35.2941 131.445 35.2783C131.407 35.2624 131.372 35.2389 131.342 35.209C131.312 35.1792 131.289 35.1435 131.272 35.1042C131.256 35.0648 131.247 35.0225 131.247 34.9796C131.246 34.9368 131.254 34.8942 131.269 34.8544L131.248 34.8863Z" fill="#2D221C"/>
<path d="M123.511 35.4043C123.456 34.4945 123.464 33.5817 123.535 32.6731C123.638 30.9228 124.018 29.202 124.659 27.5795C125.016 26.71 125.508 25.9071 126.116 25.203C126.761 24.4718 127.558 23.9039 128.448 23.543C128.525 23.5185 128.608 23.5252 128.68 23.5616C128.752 23.598 128.809 23.6615 128.838 23.7392C128.867 23.817 128.866 23.9033 128.836 23.9807C128.807 24.0582 128.75 24.121 128.677 24.1566C127.878 24.4785 127.161 24.9885 126.584 25.6464C125.753 26.6416 125.143 27.8153 124.8 29.0835C124.463 30.2694 124.251 31.4896 124.167 32.7227C124.112 33.4889 124.106 34.1415 124.112 34.6168C124.112 34.8509 124.112 35.0354 124.112 35.1595C124.112 35.2234 124.112 35.273 124.112 35.305V35.3511C124.119 35.4376 124.093 35.5234 124.038 35.5896C123.984 35.6558 123.907 35.697 123.824 35.704C123.74 35.7111 123.657 35.6834 123.594 35.6272C123.53 35.571 123.49 35.4908 123.483 35.4043H123.511Z" fill="#2D221C"/>
<path d="M139.659 26.7708C139.635 27.1074 139.707 27.444 139.866 27.7381C140.026 28.0323 140.266 28.2708 140.556 28.4238C140.846 28.5767 141.173 28.6371 141.496 28.5975C141.819 28.5578 142.124 28.4198 142.371 28.2009C142.619 27.9819 142.799 27.6919 142.888 27.3672C142.976 27.0426 142.971 26.6978 142.871 26.3765C142.772 26.0552 142.583 25.7716 142.328 25.5615C142.073 25.3514 141.765 25.2242 141.44 25.196C141.223 25.1761 141.005 25.2012 140.797 25.2699C140.59 25.3386 140.397 25.4495 140.232 25.5961C140.066 25.7427 139.93 25.9221 139.831 26.1237C139.733 26.3254 139.675 26.5454 139.659 26.7708Z" fill="#2D221C"/>
<path d="M127.381 23.7558C127.356 24.093 127.429 24.4303 127.589 24.7249C127.749 25.0196 127.989 25.2583 128.28 25.4111C128.571 25.5638 128.899 25.6237 129.222 25.583C129.546 25.5424 129.851 25.4031 130.098 25.1828C130.345 24.9624 130.524 24.671 130.612 24.3452C130.699 24.0195 130.692 23.6741 130.59 23.3528C130.489 23.0315 130.297 22.7486 130.041 22.54C129.784 22.3315 129.474 22.2065 129.149 22.181C128.933 22.1635 128.716 22.1905 128.51 22.2603C128.304 22.3301 128.114 22.4413 127.95 22.5876C127.785 22.7339 127.651 22.9124 127.553 23.1129C127.456 23.3134 127.397 23.5319 127.381 23.7558Z" fill="#2D221C"/>
<path d="M126.178 52.8345C126.138 53.2302 126.176 53.63 126.289 54.0102C126.402 54.3903 126.587 54.7431 126.834 55.0476C127.081 55.3521 127.384 55.602 127.725 55.7826C128.067 55.9631 128.44 56.0706 128.823 56.0987C129.205 56.1267 129.589 56.0748 129.952 55.9459C130.315 55.817 130.649 55.6138 130.934 55.3484C131.22 55.0829 131.451 54.7607 131.614 54.4007C131.777 54.0408 131.869 53.6505 131.884 53.253C131.899 53.1125 131.966 52.9834 132.07 52.8928C132.175 52.8023 132.309 52.7573 132.445 52.7674C132.581 52.7775 132.708 52.8419 132.799 52.947C132.89 53.0521 132.938 53.1898 132.934 53.3311C132.843 54.39 132.355 55.3697 131.576 56.0595C130.796 56.7493 129.786 57.0941 128.764 57.0197C127.742 56.9454 126.789 56.4578 126.109 55.6619C125.43 54.8659 125.079 53.8252 125.131 52.7635C125.141 52.6196 125.206 52.4857 125.311 52.3912C125.416 52.2968 125.553 52.2495 125.692 52.2599C125.831 52.2702 125.96 52.3373 126.051 52.4464C126.142 52.5555 126.188 52.6976 126.178 52.8416V52.8345Z" fill="#744E32"/>
<path d="M96.8486 24.6178C95.5938 16.7753 96.7905 10.9865 100.952 10.27C105.113 9.55353 110.645 14.3669 111.893 22.2094C113.141 30.0519 106.966 38.32 105.502 38.6712C104.237 38.9762 98.1068 32.4638 96.8486 24.6178Z" fill="#EEEBE6" fill-opacity="0.8"/>
<path d="M89.1659 39.0294C83.9347 36.5855 80.9533 33.4074 82.2491 30.4172C83.5449 27.4271 88.7454 25.8522 93.9663 28.289C99.1873 30.7258 101.594 38.1781 101.198 39.2848C100.856 40.2141 94.3971 41.4733 89.1659 39.0294Z" fill="#D3CAC2" fill-opacity="0.8"/>
<defs>
<clipPath id="clip0">
<rect width="110.793" height="110.793" fill="white" transform="translate(0 13.2119) rotate(-6.84877)"/>
</clipPath>
</defs>
</svg>
