<svg width="668" height="660" viewBox="0 0 668 660" fill="none" xmlns="http://www.w3.org/2000/svg">
<path d="M293.101 603.447V639.579L258.413 659.424L223.725 639.579V603.447L258.413 583.602L293.101 603.447Z" stroke="#FFC702"/>
<path d="M257.913 419.809V455.94L223.225 475.786L188.537 455.94V419.809L223.225 399.963L257.913 419.809Z" stroke="#FFE99A"/>
<path d="M445.95 237.27V273.402L411.262 293.247L376.574 273.402V237.27L411.262 217.425L445.95 237.27Z" stroke="#FFE99A"/>
<path d="M442.651 603.447V639.579L407.963 659.424L373.275 639.579V603.447L407.963 583.602L442.651 603.447Z" stroke="#FFE99A"/>
<path d="M407.463 419.809V455.94L372.775 475.786L338.087 455.94V419.809L372.775 399.963L407.463 419.809Z" stroke="#FFE99A"/>
<path d="M595.5 237.27V273.402L560.812 293.247L526.124 273.402V237.27L560.812 217.425L595.5 237.27Z" stroke="#FFC702"/>
<path d="M557.013 419.809V455.94L522.325 475.786L487.636 455.94V419.809L522.325 399.963L557.013 419.809Z" stroke="#FFE99A"/>
<path d="M259.013 175.691V211.822L224.325 231.668L189.636 211.822V175.691L224.325 155.845L259.013 175.691Z" stroke="#FFE99A"/>
<path d="M255.714 541.868V577.999L221.026 597.845L186.338 577.999V541.868L221.026 522.023L255.714 541.868Z" stroke="#FFE99A"/>
<path d="M220.526 358.23V394.361L185.838 414.206L151.149 394.361V358.229L185.838 338.384L220.526 358.23Z" stroke="#FFE99A"/>
<path d="M408.563 175.691V211.822L373.874 231.668L339.186 211.822V175.691L373.874 155.845L408.563 175.691Z" stroke="#FFE99A"/>
<path d="M405.264 541.868V577.999L370.576 597.845L335.887 577.999V541.868L370.576 522.023L405.264 541.868Z" stroke="#FFE99A"/>
<path d="M370.076 358.23V394.361L335.387 414.206L300.699 394.361V358.229L335.387 338.384L370.076 358.23Z" stroke="#FFE99A"/>
<path d="M554.814 541.868V577.999L520.125 597.845L485.437 577.999V541.868L520.125 522.023L554.814 541.868Z" stroke="#FFC702"/>
<path d="M519.625 358.23V394.361L484.937 414.206L450.249 394.361V358.229L484.937 338.384L519.625 358.23Z" stroke="#FFE99A"/>
<path d="M407.463 297.75V333.881L372.775 353.727L338.087 333.881V297.75L372.775 277.904L407.463 297.75Z" stroke="#FFE99A"/>
<path d="M372.275 114.112V150.243L337.587 170.088L302.898 150.243V114.111L337.587 94.2661L372.275 114.112Z" stroke="#FFE99A"/>
<path d="M368.976 480.289V516.42L334.288 536.265L299.6 516.42V480.288L334.288 460.443L368.976 480.289Z" stroke="#FFE99A"/>
<path d="M557.013 297.75V333.881L522.325 353.727L487.636 333.881V297.75L522.325 277.904L557.013 297.75Z" stroke="#FFE99A"/>
<path d="M521.825 114.112V150.243L487.136 170.088L452.448 150.243V114.111L487.136 94.2661L521.825 114.112Z" stroke="#FFE99A"/>
<path d="M518.526 480.289V516.42L483.838 536.265L449.149 516.42V480.288L483.838 460.443L518.526 480.289Z" stroke="#FFE99A"/>
<path d="M332.688 297.75V333.881L298 353.727L263.312 333.881V297.75L298 277.904L332.688 297.75Z" stroke="#FFE99A"/>
<path d="M297.5 114.112V150.243L262.812 170.088L228.124 150.243V114.111L262.812 94.2661L297.5 114.112Z" stroke="#FFE99A"/>
<path d="M294.201 480.289V516.42L259.513 536.265L224.825 516.42V480.288L259.513 460.443L294.201 480.289Z" stroke="#FFE99A"/>
<path d="M371.175 237.27V273.402L336.487 293.247L301.799 273.402V237.27L336.487 217.425L371.175 237.27Z" stroke="#FFE99A"/>
<path d="M332.688 419.809V455.94L298 475.786L263.312 455.94V419.809L298 399.963L332.688 419.809Z" stroke="#FFE99A"/>
<path d="M520.725 237.27V273.402L486.037 293.247L451.349 273.402V237.27L486.037 217.425L520.725 237.27Z" stroke="#FFE99A"/>
<path d="M482.238 419.809V455.94L447.55 475.786L412.862 455.94V419.809L447.55 399.963L482.238 419.809Z" stroke="#FFE99A"/>
<path d="M180.939 541.868V577.999L146.251 597.845L111.563 577.999V541.868L146.251 522.023L180.939 541.868Z" stroke="#FFE99A"/>
<path d="M145.751 358.23V394.361L111.063 414.206L76.3745 394.361V358.229L111.063 338.384L145.751 358.23Z" stroke="#FFE99A"/>
<path d="M330.489 541.868V577.999L295.801 597.845L261.113 577.999V541.868L295.801 522.023L330.489 541.868Z" stroke="#FFE99A"/>
<path d="M295.301 358.23V394.361L260.613 414.206L225.924 394.361V358.229L260.613 338.384L295.301 358.23Z" stroke="#FFE99A"/>
<path d="M483.338 175.691V211.822L448.649 231.668L413.961 211.822V175.691L448.649 155.845L483.338 175.691Z" stroke="#FFE99A"/>
<path d="M480.039 541.868V577.999L445.351 597.845L410.662 577.999V541.868L445.351 522.023L480.039 541.868Z" stroke="#FFC702"/>
<path d="M444.851 358.23V394.361L410.162 414.206L375.474 394.361V358.229L410.162 338.384L444.851 358.23Z" stroke="#FFE99A"/>
<path d="M447.05 114.112V150.243L412.362 170.088L377.673 150.243V114.111L412.362 94.2661L447.05 114.112Z" stroke="#FFE99A"/>
<path d="M443.751 480.289V516.42L409.063 536.265L374.375 516.42V480.288L409.063 460.443L443.751 480.289Z" stroke="#FFE99A"/>
<path d="M257.913 297.75V333.881L223.225 353.727L188.537 333.881V297.75L223.225 277.904L257.913 297.75Z" stroke="#FFE99A"/>
<path d="M222.725 114.112V150.243L188.037 170.088L153.349 150.243V114.111L188.037 94.2661L222.725 114.112Z" stroke="#FFC702"/>
<path d="M219.426 480.289V516.42L184.738 536.265L150.05 516.42V480.288L184.738 460.443L219.426 480.289Z" stroke="#FFC702"/>
<path d="M146.851 237.27V273.402L112.162 293.247L77.4741 273.402V237.27L112.162 217.425L146.851 237.27Z" stroke="#FFE99A"/>
<path d="M109.463 175.691V211.822L74.7749 231.668L40.0867 211.822V175.691L74.7749 155.845L109.463 175.691Z" stroke="#FFE99A"/>
<path d="M183.138 297.75V333.881L148.45 353.727L113.762 333.881V297.75L148.45 277.904L183.138 297.75Z" stroke="#FFE99A"/>
<path d="M144.651 480.289V516.42L109.963 536.265L75.2749 516.42V480.288L109.963 460.443L144.651 480.289Z" stroke="#FFE99A"/>
<path d="M72.0756 237.27V273.402L37.3874 293.247L2.69922 273.402V237.27L37.3874 217.425L72.0756 237.27Z" stroke="#FFC702"/>
<path d="M108.363 297.75V333.881L73.6753 353.727L38.9871 333.881V297.75L73.6753 277.904L108.363 297.75Z" stroke="#FFE99A"/>
<path d="M69.8764 480.289V516.42L35.1882 536.265L0.5 516.42V480.288L35.1882 460.443L69.8764 480.289Z" stroke="#FFC702"/>
<g clip-path="url(#clip0)">
<path d="M535.274 383.698C535.274 383.698 587.341 394.595 601.937 344.547C601.937 344.547 546.276 321.271 535.274 383.698Z" fill="#87C2B6"/>
<path d="M535.274 383.698C535.274 383.698 577.832 356.408 592.551 350.002" stroke="#118688" stroke-width="4.5851" stroke-miterlimit="10" stroke-linecap="round"/>
<path d="M548.506 375.326L554.916 361.34" stroke="#118688" stroke-width="4.5851" stroke-miterlimit="10" stroke-linecap="round"/>
<path d="M548.342 375.067L563.622 376.056" stroke="#118688" stroke-width="4.5851" stroke-miterlimit="10" stroke-linecap="round"/>
<path d="M562.64 367.231L577.974 368.307" stroke="#118688" stroke-width="4.5851" stroke-miterlimit="10" stroke-linecap="round"/>
<path d="M576.036 359.119L591.37 360.195" stroke="#118688" stroke-width="4.5851" stroke-miterlimit="10" stroke-linecap="round"/>
<path d="M563.19 366.762L569.546 352.689" stroke="#118688" stroke-width="4.5851" stroke-miterlimit="10" stroke-linecap="round"/>
<path d="M576.131 358.695L582.541 344.709" stroke="#118688" stroke-width="4.5851" stroke-miterlimit="10" stroke-linecap="round"/>
<path d="M536.797 386.489C536.797 386.489 570.859 445.109 630.832 416.246C630.832 416.246 605.306 343.748 536.797 386.489Z" fill="#87C2B6"/>
<path d="M536.798 386.488C536.798 386.488 598.998 403.448 617.563 411.926" stroke="#118688" stroke-width="5.8454" stroke-miterlimit="10" stroke-linecap="round"/>
<path d="M556.029 392.002L574.71 386.117" stroke="#118688" stroke-width="5.8454" stroke-miterlimit="10" stroke-linecap="round"/>
<path d="M556.125 391.578L568.164 406.971" stroke="#118688" stroke-width="5.8454" stroke-miterlimit="10" stroke-linecap="round"/>
<path d="M575.722 398.435L587.903 413.858" stroke="#118688" stroke-width="5.8454" stroke-miterlimit="10" stroke-linecap="round"/>
<path d="M594.803 404.285L606.985 419.709" stroke="#118688" stroke-width="5.8454" stroke-miterlimit="10" stroke-linecap="round"/>
<path d="M576.656 398.57L595.423 392.63" stroke="#118688" stroke-width="5.8454" stroke-miterlimit="10" stroke-linecap="round"/>
<path d="M595.323 403.956L614.09 398.016" stroke="#118688" stroke-width="5.8454" stroke-miterlimit="10" stroke-linecap="round"/>
<path d="M475.488 395.246C475.488 395.246 409.142 409.249 417.816 475.213C417.762 475.126 494.624 473.725 475.488 395.246Z" fill="#87C2B6"/>
<path d="M475.488 395.246C475.488 395.246 439.823 448.936 425.977 463.994" stroke="#118688" stroke-width="5.8454" stroke-miterlimit="10" stroke-linecap="round"/>
<path d="M464.276 411.787L464.091 431.401" stroke="#118688" stroke-width="5.8454" stroke-miterlimit="10" stroke-linecap="round"/>
<path d="M464.699 411.882L446.197 418.623" stroke="#118688" stroke-width="5.8454" stroke-miterlimit="10" stroke-linecap="round"/>
<path d="M452.011 428.387L433.509 435.128" stroke="#118688" stroke-width="5.8454" stroke-miterlimit="10" stroke-linecap="round"/>
<path d="M440.462 444.777L422.046 451.464" stroke="#118688" stroke-width="5.8454" stroke-miterlimit="10" stroke-linecap="round"/>
<path d="M451.593 429.257L451.322 448.927" stroke="#118688" stroke-width="5.8454" stroke-miterlimit="10" stroke-linecap="round"/>
<path d="M440.563 445.319L440.378 464.934" stroke="#118688" stroke-width="5.8454" stroke-miterlimit="10" stroke-linecap="round"/>
<path d="M466.189 322.17C467.905 304.976 486.412 281.399 507.439 293.769C521.131 301.818 518.38 318.334 515.279 330.468C510.776 347.85 500.255 363.953 485.368 375.068C481.467 377.899 472.977 358.929 471.932 356.321C467.446 345.595 465.036 333.556 466.189 322.17Z" fill="#D1CDC0"/>
<path d="M468.494 329.067C470.352 311.906 487.87 288.106 507.344 300.126C520.047 307.954 517.155 324.437 514.055 336.572C509.551 353.954 499.595 370.184 485.555 381.489C481.937 384.384 474.294 365.604 473.335 362.941C469.273 352.311 467.287 340.367 468.494 329.067Z" fill="#ECE8DC"/>
<path d="M501.792 439.882C500.076 457.075 481.569 480.653 460.542 468.283C446.85 460.233 449.601 443.718 452.702 431.583C457.205 414.201 467.726 398.099 482.613 386.984C486.514 384.152 495.004 403.122 496.049 405.731C500.535 416.457 502.944 428.496 501.792 439.882Z" fill="#D1CDC0"/>
<path d="M499.4 433.039C497.543 450.201 480.024 474.001 460.55 461.98C447.847 454.153 450.739 437.669 453.84 425.535C458.343 408.153 468.299 391.923 482.339 380.617C485.957 377.723 493.601 396.502 494.559 399.165C498.621 409.796 500.694 421.685 499.4 433.039Z" fill="#ECE8DC"/>
<path d="M540.307 367.919C557.5 369.636 581.078 388.142 568.708 409.17C560.658 422.861 544.143 420.11 532.008 417.01C514.626 412.506 498.524 401.986 487.409 387.098C484.577 383.198 503.547 374.707 506.156 373.662C516.882 369.177 528.921 366.767 540.307 367.919Z" fill="#D1CDC0"/>
<path d="M533.551 370.256C550.712 372.114 574.512 389.632 562.492 409.106C554.664 421.81 538.181 418.917 526.046 415.817C508.664 411.313 492.434 401.358 481.129 387.317C478.234 383.699 497.013 376.056 499.677 375.097C510.221 371.09 522.11 369.018 533.551 370.256Z" fill="#ECE8DC"/>
<path d="M423.802 404.091C406.609 402.375 383.031 383.868 395.401 362.84C403.451 349.149 419.966 351.9 432.101 355C449.483 359.504 465.585 370.024 476.7 384.912C479.532 388.812 460.562 397.303 457.953 398.348C447.141 402.888 435.188 405.243 423.802 404.091Z" fill="#D1CDC0"/>
<path d="M430.558 401.754C413.397 399.896 389.597 382.378 401.617 362.904C409.445 350.201 425.928 353.093 438.063 356.193C455.445 360.697 471.675 370.653 482.98 384.693C485.875 388.311 467.095 395.954 464.432 396.913C453.802 400.975 441.913 403.047 430.558 401.754Z" fill="#ECE8DC"/>
<path d="M429.737 349.351C418.814 335.916 415.179 306.244 438.837 299.995C454.208 295.961 463.906 309.566 470.29 320.422C479.347 335.885 483.411 354.749 480.616 373.109C479.85 377.832 460.435 370.498 457.793 369.384C447.137 364.984 436.967 358.098 429.737 349.351Z" fill="#D1CDC0"/>
<path d="M436.165 352.429C425.384 339.026 420.915 309.76 443.213 304.614C457.687 301.269 467.385 314.873 473.715 325.643C482.772 341.106 487.268 359.696 485.338 377.509C484.831 382.068 466.108 374.296 463.639 373.073C453.219 368.281 443.363 361.317 436.165 352.429Z" fill="#ECE8DC"/>
<path d="M540.948 411.232C551.816 424.581 555.506 454.339 531.793 460.501C516.422 464.535 506.724 450.931 500.34 440.075C491.283 424.612 487.219 405.747 490.014 387.388C490.78 382.664 510.195 389.999 512.837 391.113C523.548 395.599 533.663 402.399 540.948 411.232Z" fill="#D1CDC0"/>
<path d="M534.465 408.068C545.246 421.471 549.715 450.737 527.472 455.969C512.998 459.314 503.3 445.71 496.97 434.94C487.913 419.477 483.417 400.887 485.347 383.074C485.853 378.515 504.632 386.374 507.046 387.51C517.411 392.215 527.267 399.18 534.465 408.068Z" fill="#ECE8DC"/>
<path d="M514.458 329.171C527.807 318.303 557.565 314.613 563.727 338.326C567.761 353.697 554.157 363.395 543.301 369.779C527.838 378.836 508.973 382.9 490.614 380.105C485.89 379.339 493.225 359.924 494.338 357.282C498.825 346.571 505.625 336.456 514.458 329.171Z" fill="#D1CDC0"/>
<path d="M511.294 335.654C524.697 324.873 553.963 320.404 559.195 342.647C562.54 357.121 548.936 366.819 538.166 373.149C522.703 382.206 504.113 386.702 486.3 384.772C481.741 384.266 489.513 365.542 490.736 363.073C495.441 352.708 502.406 342.852 511.294 335.654Z" fill="#ECE8DC"/>
<path d="M455.623 434.095C442.275 444.963 412.517 448.653 406.354 424.94C402.32 409.569 415.925 399.872 426.781 393.487C442.244 384.43 461.108 380.366 479.468 383.161C484.191 383.927 476.857 403.342 475.743 405.985C471.257 416.695 464.37 426.865 455.623 434.095Z" fill="#D1CDC0"/>
<path d="M458.701 427.667C445.298 438.448 416.032 442.916 410.8 420.674C407.4 406.113 421.059 396.502 431.915 390.117C447.378 381.06 465.969 376.564 483.781 378.494C488.34 379 480.568 397.724 479.345 400.193C474.64 410.558 467.589 420.469 458.701 427.667Z" fill="#ECE8DC"/>
<path d="M513.541 396.226C520.786 379.469 513.074 360.012 496.317 352.767C479.56 345.523 460.102 353.235 452.858 369.992C445.614 386.749 453.326 406.206 470.083 413.451C486.84 420.695 506.297 412.983 513.541 396.226Z" fill="#6B3917"/>
<path d="M508.263 366.274C517.528 380.152 513.9 398.917 500.022 408.183C486.144 417.448 467.379 413.82 458.113 399.942C448.848 386.064 452.476 367.298 466.354 358.033C480.177 348.681 498.998 352.396 508.263 366.274Z" fill="#925627"/>
<path d="M503.494 375.699C499.412 364.493 487.02 358.718 475.814 362.799C464.608 366.88 458.833 379.273 462.914 390.479C466.995 401.685 479.388 407.46 490.594 403.379C501.799 399.298 507.575 386.905 503.494 375.699Z" fill="#6B3917"/>
<path d="M459.14 430.658C445.737 441.44 416.472 445.908 411.239 423.666C407.894 409.191 421.498 399.493 432.268 393.164C447.731 384.107 466.322 379.61 484.134 381.54C488.693 382.047 480.921 400.77 479.698 403.24C475.048 413.691 468.083 423.547 459.14 430.658Z" fill="#ECE8DC"/>
<path d="M504.528 438.272C500.466 455.012 480.136 476.474 462.395 462.024C450.865 452.607 455.702 436.709 460.324 425.065C466.969 408.387 478.907 393.567 494.237 384.11C498.184 381.734 503.423 401.308 504.068 404.049C506.7 415.099 507.179 427.149 504.528 438.272Z" fill="#ECE8DC"/>
<path d="M534.987 406.405C546.319 419.339 552.099 448.38 530.09 454.555C515.77 458.529 505.522 445.394 498.705 434.811C488.956 419.786 483.659 401.46 484.883 383.489C485.193 378.812 504.217 385.91 506.804 386.937C517.319 391.305 527.411 397.877 534.987 406.405Z" fill="#ECE8DC"/>
</g>
<g clip-path="url(#clip1)">
<path d="M466.509 464.128H226.633C203.89 464.128 185.142 445.509 185.142 422.582C185.142 399.808 203.736 381.035 226.633 381.035H466.509C489.252 381.035 508 399.654 508 422.582C508 445.509 489.406 464.128 466.509 464.128Z" fill="#EAAA2A"/>
<path d="M466.663 517.524C466.663 494.75 448.069 475.977 425.173 475.977H268.277C245.534 475.977 226.786 494.596 226.786 517.524C226.786 526.295 229.552 534.296 234.162 541.067C240.309 569.688 288.407 592 346.801 592C405.196 592 453.294 569.688 459.441 541.067C464.051 534.45 466.663 526.295 466.663 517.524Z" fill="#EAAA2A"/>
<path d="M457.597 245.469C447.301 235.621 434.546 227.619 423.021 221.464C409.652 214.386 393.978 211.616 379.226 209.154C344.958 203.614 309.306 208.231 277.19 221.156C254.447 230.235 205.273 252.086 205.273 281.63V288.708C205.273 308.558 221.562 324.869 241.385 324.869H442.537C462.36 324.869 478.649 308.558 478.649 288.708C478.803 271.474 469.89 257.163 457.597 245.469Z" fill="#EAAA2A"/>
<path d="M466.509 544.606H226.633C203.89 544.606 185.142 525.987 185.142 503.059C185.142 480.285 203.736 461.512 226.633 461.512H466.509C489.252 461.512 508 480.131 508 503.059C508 525.987 489.406 544.606 466.509 544.606Z" fill="#FCC447"/>
<path d="M466.509 383.958H226.633C203.89 383.958 185.142 365.339 185.142 342.412C185.142 319.638 203.736 300.865 226.633 300.865H466.509C489.252 300.865 508 319.484 508 342.412C508 365.339 489.406 383.958 466.509 383.958Z" fill="#FCC447"/>
<path d="M330.82 527.526C384.118 527.526 427.324 484.261 427.324 430.891C427.324 377.521 384.118 334.256 330.82 334.256C277.522 334.256 234.316 377.521 234.316 430.891C234.316 484.261 277.522 527.526 330.82 527.526Z" fill="#EAAA2A"/>
<path d="M443.152 430.737C443.152 437.354 442.537 443.817 441.154 450.126C438.695 462.282 433.932 473.669 427.324 483.825C425.173 487.21 422.714 490.441 420.102 493.519C412.725 502.136 403.813 509.522 393.824 515.062C379.84 522.909 363.859 527.372 346.648 527.372C340.962 527.372 335.43 526.91 329.898 525.987C329.591 525.987 329.283 525.833 329.13 525.833C316.683 523.525 305.004 518.909 294.708 512.292C290.713 509.676 286.871 506.752 283.183 503.675C263.052 485.825 250.298 459.82 250.298 430.737C250.298 396.422 268.277 366.263 295.169 349.028C299.625 346.259 304.389 343.643 309.306 341.642C310.229 341.181 311.151 340.873 312.226 340.565C322.983 336.41 334.662 334.102 346.802 334.102C347.724 334.102 348.799 334.102 349.721 334.102C350.797 334.102 351.873 334.256 352.795 334.256C361.093 334.718 368.93 336.257 376.613 338.719C415.184 351.49 443.152 387.959 443.152 430.737Z" fill="#BE7F18"/>
<path d="M375.691 516.139L372.157 543.683C371.081 546.299 367.854 547.222 365.549 545.375L348.799 522.755L375.691 516.139Z" fill="#453C36"/>
<path d="M456.828 390.267C479.11 371.648 489.56 352.721 479.264 340.411C468.968 328.101 441.769 327.639 419.487 346.259C397.205 364.878 395.207 403.039 398.588 407.655C401.354 411.656 434.546 408.886 456.828 390.267Z" fill="#F4F1EB" fill-opacity="0.8"/>
<path d="M444.381 449.202C465.126 455.357 481.262 453.972 484.796 442.586C488.177 431.045 477.113 413.964 456.367 407.655C435.622 401.5 410.881 416.119 409.498 419.966C408.115 423.351 423.636 442.893 444.381 449.202Z" fill="#D8CEC5" fill-opacity="0.8"/>
<path d="M230.013 451.51C201.43 446.74 182.837 435.507 185.603 419.812C188.215 403.962 211.726 389.96 240.309 394.73C268.891 399.5 289.79 431.506 289.175 437.2C288.561 442.124 258.595 456.281 230.013 451.51Z" fill="#F4F1EB" fill-opacity="0.8"/>
<path d="M270.275 496.135C255.369 511.984 240.77 518.908 232.011 510.753C223.252 502.597 224.174 482.132 239.08 466.283C253.986 450.433 282.568 450.741 285.795 453.357C288.715 455.665 285.027 480.285 270.275 496.135Z" fill="#D8CEC5" fill-opacity="0.8"/>
<path d="M421.638 424.89C422.099 426.428 422.407 427.813 422.714 429.352C423.329 432.276 423.79 435.199 424.097 437.969C425.634 450.741 424.712 463.359 421.638 474.9C421.485 475.207 421.485 475.515 421.331 475.823C413.34 504.598 392.288 527.218 364.013 533.065C339.733 538.143 315.453 529.834 297.167 512.753C294.554 510.291 292.096 507.675 289.791 504.906C282.414 496.135 276.421 485.671 272.426 474.13C271.965 472.745 271.504 471.514 271.197 470.13C270.275 467.36 269.66 464.436 269.045 461.359C267.509 454.126 266.894 446.894 266.894 439.816C266.894 437.969 267.048 436.277 267.048 434.43C269.353 396.73 293.171 364.878 327.593 357.645C357.712 351.337 387.985 365.647 406.579 391.96C409.345 395.807 411.803 399.962 414.109 404.424C417.182 410.733 419.794 417.657 421.638 424.89Z" fill="#FFC702"/>
<path d="M421.638 424.89C416.106 429.044 410.113 433.045 403.813 436.738C387.524 446.432 369.084 454.588 349.107 460.435C326.056 467.206 303.313 470.437 281.8 470.437C278.112 470.437 274.577 470.283 271.043 470.129C270.121 467.36 269.506 464.436 268.892 461.359C267.355 454.126 266.74 446.894 266.74 439.816C266.74 437.969 266.894 436.277 266.894 434.43C273.809 435.046 281.185 435.353 288.869 435.046C304.696 434.43 321.754 431.814 339.118 426.582C358.941 420.735 376.921 412.426 391.826 402.731C397.205 399.346 402.122 395.653 406.579 391.96C409.345 395.807 411.803 399.962 414.108 404.424C417.182 410.733 419.794 417.657 421.638 424.89Z" fill="#453C36"/>
<path d="M421.331 475.823C413.34 504.598 392.288 527.218 364.012 533.065C339.733 538.143 315.453 529.834 297.167 512.753C301.93 512.907 306.694 513.061 311.765 512.753C327.593 512.138 344.65 509.522 362.015 504.29C381.838 498.443 399.817 490.133 414.723 480.439C416.875 478.9 419.18 477.362 421.331 475.823Z" fill="#453C36"/>
<path d="M302.084 405.809C303.467 411.041 307.309 414.734 310.536 413.811C313.763 412.887 315.146 407.963 313.763 402.578C312.38 397.346 308.538 393.653 305.311 394.576C302.084 395.499 300.701 400.577 302.084 405.809Z" fill="#453C36"/>
<path d="M352.641 392.114C354.024 397.346 357.866 401.039 361.093 400.115C364.32 399.192 365.703 394.268 364.32 388.882C362.937 383.651 359.095 379.958 355.868 380.881C352.641 381.804 351.258 386.882 352.641 392.114Z" fill="#453C36"/>
<path d="M332.203 359.646C332.203 359.646 331.588 351.029 333.586 341.488C334.662 336.718 336.198 331.64 339.118 327.178C341.884 322.715 345.726 318.868 351.258 316.868C351.412 316.868 351.412 316.868 351.565 316.714C352.18 316.56 352.795 316.868 353.102 317.484C353.256 318.099 352.948 318.715 352.334 319.022C352.18 319.022 352.18 319.022 352.026 319.176C347.263 321.023 343.728 324.408 341.116 328.563C337.274 334.718 335.584 342.566 334.969 348.874C334.662 351.952 334.508 354.722 334.508 356.722C334.508 357.645 334.508 358.415 334.508 359.03C334.508 359.338 334.508 359.492 334.508 359.646V359.8C334.508 360.415 334.047 361.031 333.432 361.031C332.818 360.723 332.357 360.261 332.203 359.646Z" fill="#2D221C"/>
<path d="M315.3 361.8C315.3 361.8 313.302 358.107 309.614 353.645C306.233 349.336 301.469 344.258 295.63 340.565C292.71 338.719 289.637 337.334 286.256 336.41C282.875 335.641 279.341 335.487 275.499 336.41C274.885 336.564 274.424 337.18 274.577 337.795C274.731 338.411 275.346 338.872 275.96 338.719C279.341 337.949 282.568 338.103 285.642 338.719C290.252 339.796 294.554 342.258 298.242 345.335C301.93 348.413 305.157 351.952 307.616 355.03C309.307 357.184 310.69 359.184 311.612 360.569C312.073 361.339 312.38 361.8 312.687 362.262C312.841 362.416 312.841 362.57 312.995 362.723V362.877C313.302 363.493 314.07 363.647 314.685 363.339C315.453 363.031 315.607 362.262 315.3 361.8Z" fill="#2D221C"/>
<path d="M348.184 319.022C349.414 322.254 353.102 323.793 356.329 322.562C359.556 321.331 361.092 317.637 359.863 314.406C358.634 311.175 354.946 309.636 351.719 310.867C348.491 312.252 346.955 315.791 348.184 319.022Z" fill="#2D221C"/>
<path d="M279.341 334.718C281.492 337.488 281.031 341.335 278.265 343.489C275.499 345.643 271.658 345.181 269.506 342.412C267.355 339.642 267.816 335.795 270.582 333.641C273.348 331.64 277.19 332.102 279.341 334.718Z" fill="#2D221C"/>
<path d="M345.265 405.655C346.187 408.579 345.726 411.502 344.497 413.964C343.267 416.426 340.962 418.427 338.043 419.196C335.123 420.119 332.203 419.658 329.744 418.427C327.286 417.196 325.288 414.888 324.52 411.964C324.212 410.887 323.137 410.271 322.061 410.579C320.985 410.887 320.371 411.964 320.678 413.041C323.137 420.889 331.281 425.351 339.118 422.889C346.955 420.427 351.412 412.272 348.953 404.424C348.646 403.347 347.57 402.731 346.494 403.039C345.572 403.501 344.958 404.578 345.265 405.655Z" fill="#453C36"/>
<path d="M253.678 432.276C254.293 431.66 255.369 431.814 255.983 432.43C255.983 432.43 257.366 433.968 259.21 435.046C260.132 435.507 261.208 435.969 262.284 436.123C263.36 436.277 264.435 436.123 265.511 435.353C266.279 434.892 267.355 435.199 267.662 435.969C268.123 436.738 267.816 437.815 267.048 438.123C265.204 439.2 263.36 439.354 261.669 439.2C260.44 439.046 259.21 438.739 258.288 438.123C256.752 437.354 255.522 436.43 254.754 435.661C253.832 434.892 253.371 434.276 253.371 434.276C252.91 433.968 253.064 432.891 253.678 432.276Z" fill="#2D221C"/>
<path d="M418.719 387.805C417.797 387.651 417.028 388.267 416.875 389.19C416.875 389.19 416.414 391.191 415.338 393.037C414.877 393.96 414.109 394.884 413.187 395.499C412.264 396.115 411.342 396.576 409.959 396.576C409.037 396.576 408.269 397.346 408.423 398.269C408.423 399.192 409.191 399.962 410.113 399.808C412.111 399.808 413.955 399.038 415.184 398.115C416.26 397.346 417.028 396.422 417.643 395.499C418.565 394.114 419.18 392.729 419.487 391.652C419.794 390.575 419.948 389.806 419.948 389.806C420.102 388.729 419.487 387.959 418.719 387.805Z" fill="#2D221C"/>
</g>
<g opacity="0.5" filter="url(#filter0_f)">
<path d="M79.0672 357.321C85.7826 375.865 102.251 387.835 121.358 390.448C128.872 391.459 136.867 391.122 144.781 389.099C147.579 388.425 150.377 387.497 153.096 386.402C157.732 384.547 161.969 382.271 165.887 379.574C188.111 364.317 198.664 336.838 189.95 312.731C181.556 289.635 157.972 276.654 132.95 279.352C127.274 279.942 121.518 281.375 115.922 283.651C114.083 284.409 112.324 285.168 110.565 286.095C102.811 290.057 96.1753 295.283 90.819 301.436C77.3884 317.03 72.1121 338.271 79.0672 357.321Z" fill="#FFC702"/>
</g>
<g opacity="0.5" filter="url(#filter1_f)">
<path d="M387.146 245.72C394.033 264.595 410.924 276.778 430.521 279.438C438.228 280.467 446.428 280.124 454.545 278.065C457.415 277.379 460.285 276.435 463.072 275.32C467.828 273.432 472.174 271.116 476.191 268.37C498.986 252.841 509.809 224.871 500.872 200.333C492.262 176.825 468.074 163.612 442.41 166.358C436.588 166.959 430.685 168.417 424.945 170.734C423.059 171.506 421.255 172.278 419.452 173.222C411.498 177.254 404.693 182.573 399.199 188.837C385.424 204.709 380.012 226.33 387.146 245.72Z" fill="#FFC702"/>
</g>
<path d="M436.045 254.56L423.813 269.464C422.218 270.682 419.988 269.918 419.328 268.022L417.72 248.491L436.045 254.56Z" fill="#453C36"/>
<path d="M530.365 210.085C550.394 207.33 563.575 199.972 561.973 188.93C560.457 177.913 544.351 167.607 524.323 170.362C504.295 173.118 489.039 194.94 489.363 198.904C489.668 202.296 510.337 212.841 530.365 210.085Z" fill="#ECE9E5" fill-opacity="0.8"/>
<path d="M501.443 240.251C511.478 251.563 521.578 256.671 527.768 251.174C533.959 245.678 533.717 231.366 523.657 220.141C513.622 208.829 493.61 208.383 491.26 210.224C489.3 211.71 491.323 228.914 501.443 240.251Z" fill="#D8CEC6" fill-opacity="0.8"/>
<path d="M373.241 162.901C358.044 149.567 351.097 136.165 358.518 127.832C365.852 119.473 384.971 119.745 400.168 133.079C415.364 146.412 416.073 173.029 413.62 176.158C411.496 178.821 388.438 176.234 373.241 162.901Z" fill="#ECE9E5" fill-opacity="0.8"/>
<path d="M380.759 204.01C366.153 207.922 354.91 206.62 352.771 198.623C350.633 190.625 358.72 178.815 373.3 174.989C387.906 171.077 404.853 181.73 405.8 184.56C406.617 186.88 395.452 200.124 380.759 204.01Z" fill="#D8CEC6" fill-opacity="0.8"/>
<path d="M496.729 217.524C496.417 218.562 496.019 219.574 495.733 220.525C495.049 222.489 494.217 224.314 493.386 226.138C489.625 234.251 484.459 241.375 478.416 247.01C478.277 247.157 478.139 247.304 477.913 247.424C462.619 261.503 441.846 267.052 422.836 260.118C406.551 254.19 395.205 240.316 390.59 223.559C389.972 221.204 389.407 218.677 389.102 216.228C387.97 208.344 388.199 200.021 390.06 191.621C390.259 190.643 390.519 189.778 390.718 188.801C391.228 186.785 391.912 184.822 392.597 182.858C394.337 178.006 396.634 173.509 399.199 169.376C399.884 168.356 400.595 167.249 401.253 166.315C416.465 144.951 442.31 134.795 465.407 143.24C485.606 150.626 498.273 170.178 499.708 192.486C499.953 195.766 499.885 199.14 499.618 202.549C499.343 207.559 498.323 212.533 496.729 217.524Z" fill="#FFC702"/>
<path d="M496.729 217.524C491.872 217.951 486.918 218.067 481.818 218.044C468.571 217.744 454.674 215.833 440.627 211.898C424.472 207.424 409.774 200.936 397.096 193.074C394.935 191.765 392.887 190.395 390.865 188.939C391.376 186.924 392.06 184.96 392.744 182.997C394.485 178.145 396.781 173.648 399.347 169.515C400.031 168.494 400.742 167.388 401.401 166.454C405.332 169.426 409.602 172.217 414.209 174.827C423.807 180.349 434.982 185.025 447.059 188.275C461.045 192.097 474.648 193.73 487.104 193.511C491.485 193.412 495.744 193.088 499.881 192.538C500.126 195.818 500.059 199.192 499.792 202.601C499.343 207.559 498.323 212.533 496.729 217.524Z" fill="#453C36"/>
<path d="M477.887 247.511C462.593 261.589 441.82 267.139 422.81 260.204C406.525 254.276 395.179 240.402 390.564 223.645C393.314 225.509 396.178 227.311 399.154 229.054C408.752 234.576 419.841 239.227 432.004 242.502C445.903 246.299 459.593 247.958 472.049 247.738C474.114 247.792 476.031 247.708 477.887 247.511Z" fill="#453C36"/>
<path d="M432.792 162.396C431.701 166.029 432.614 169.603 434.783 170.255C437.039 170.932 439.657 168.512 440.774 164.793C441.865 161.16 440.952 157.585 438.783 156.934C436.614 156.282 433.883 158.763 432.792 162.396Z" fill="#453C36"/>
<path d="M467.844 172.922C466.753 176.555 467.666 180.129 469.835 180.781C472.09 181.458 474.709 179.038 475.826 175.319C476.917 171.686 476.004 168.111 473.835 167.46C471.666 166.808 468.935 169.289 467.844 172.922Z" fill="#453C36"/>
<path d="M467.646 146.176C467.646 146.176 470.463 140.892 475.153 135.982C477.511 133.484 480.39 131.143 483.633 129.476C486.877 127.81 490.606 127.044 494.64 127.784C494.727 127.81 494.814 127.836 494.814 127.836C495.248 127.966 495.604 128.356 495.474 128.789C495.344 129.221 494.954 129.575 494.52 129.445C494.433 129.419 494.433 129.419 494.346 129.393C490.772 128.697 487.441 129.394 484.423 130.94C479.879 133.158 476.021 137.186 473.291 140.61C471.912 142.365 470.872 143.938 470.162 145.045C469.806 145.598 469.564 146.091 469.373 146.411C469.321 146.584 469.182 146.731 469.156 146.818L469.13 146.904C468.914 147.311 468.402 147.44 467.994 147.223C467.647 147.119 467.43 146.582 467.646 146.176Z" fill="#2D221C"/>
<path d="M456.834 141.231C456.834 141.231 456.946 138.341 456.449 134.325C455.987 130.509 455.039 125.792 452.928 121.481C451.86 119.368 450.593 117.29 448.822 115.627C447.077 113.877 445.029 112.508 442.539 111.666C442.106 111.536 441.655 111.777 441.438 112.184C441.308 112.616 441.551 113.066 441.959 113.283C444.189 114.047 446.089 115.278 447.6 116.863C449.934 119.167 451.576 122.206 452.705 125.374C453.835 128.543 454.452 131.84 454.766 134.575C455.027 136.539 455.106 138.166 455.116 139.395C455.133 139.966 455.177 140.45 455.16 140.822C455.108 140.995 455.169 141.108 455.143 141.194L455.117 141.281C455.074 141.739 455.43 142.129 455.889 142.173C456.401 142.044 456.791 141.689 456.834 141.231Z" fill="#2D221C"/>
<path d="M491.986 128.119C491.571 130.446 493.134 132.801 495.468 133.219C497.801 133.637 500.16 132.082 500.575 129.755C500.99 127.428 499.427 125.072 497.094 124.654C494.76 124.236 492.427 125.705 491.986 128.119Z" fill="#2D221C"/>
<path d="M445.446 112.071C445.777 114.433 443.982 116.629 441.64 116.869C439.272 117.195 437.068 115.401 436.824 113.065C436.493 110.702 438.287 108.506 440.629 108.267C442.971 108.027 445.115 109.708 445.446 112.071Z" fill="#2D221C"/>
<path d="M458.521 178.138C458.011 180.153 456.684 181.735 455.054 182.754C453.337 183.748 451.342 184.091 449.347 183.492C447.325 182.979 445.737 181.654 444.712 180.026C443.714 178.312 443.366 176.321 443.963 174.332C444.171 173.64 443.745 172.852 442.965 172.617C442.27 172.409 441.481 172.832 441.248 173.61C439.785 179.112 443.11 184.731 448.628 186.2C454.146 187.668 459.774 184.36 461.237 178.859C461.445 178.167 461.019 177.379 460.238 177.144C459.518 177.023 458.729 177.446 458.521 178.138Z" fill="#453C36"/>
<path d="M394.362 160.285C394.961 160.182 395.577 160.65 395.681 161.247C395.681 161.247 395.899 162.727 396.654 163.991C397.019 164.666 397.497 165.281 398.026 165.723C398.642 166.191 399.31 166.486 400.256 166.487C400.915 166.496 401.418 167.025 401.323 167.656C401.315 168.314 400.786 168.815 400.153 168.719C398.748 168.675 397.498 168.111 396.587 167.366C395.91 166.785 395.346 166.144 394.955 165.555C394.295 164.603 393.948 163.555 393.696 162.82C393.444 162.084 393.426 161.513 393.339 161.487C393.322 160.916 393.764 160.388 394.362 160.285Z" fill="#2D221C"/>
<path d="M508.627 194.599C508.184 194.183 507.412 194.234 506.996 194.675C506.996 194.675 505.999 195.79 504.672 196.429C503.996 196.791 503.258 197.041 502.573 197.119C501.801 197.17 501.081 197.048 500.291 196.528C499.736 196.172 499.025 196.336 498.756 196.915C498.401 197.469 498.566 198.178 499.147 198.447C500.345 199.184 501.698 199.402 502.869 199.282C503.754 199.171 504.578 198.947 505.229 198.67C506.304 198.239 507.171 197.556 507.787 197.081C508.402 196.606 508.732 196.139 508.818 196.165C509.148 195.698 509.069 195.015 508.627 194.599Z" fill="#2D221C"/>
<path d="M313.883 138.216C308.825 137.099 305.101 133.065 305.162 128.416L304.113 61.7658C304.007 59.2556 304.978 56.8795 306.87 55.0175C309.046 52.804 312.248 51.5421 315.502 51.5352L473.944 50.2475C474.929 50.2578 476.005 50.3918 476.913 50.5922C481.971 51.7087 485.695 55.743 485.634 60.3922L486.683 127.042C486.752 132.756 481.803 137.259 475.255 137.368L316.852 138.56C315.867 138.55 314.92 138.445 313.883 138.216Z" fill="#FFC702"/>
<path d="M473.099 132.954L318.975 134.055C314.995 134.109 311.725 131.73 311.645 128.811L310.557 61.2196C310.477 58.3007 313.716 55.9074 317.697 55.8535L471.95 54.7811C475.931 54.7273 479.2 57.1069 479.28 60.0258L480.369 127.617C480.319 130.507 477.209 132.929 473.099 132.954Z" fill="#FFF4CC"/>
<path d="M394.306 138.108L395.147 197.675C395.164 198.246 395.607 198.662 396.179 198.645C396.752 198.628 397.168 198.187 397.15 197.616L396.31 138.05C396.293 137.479 395.85 137.063 395.277 137.079C394.705 137.096 394.289 137.537 394.306 138.108Z" fill="#453C36"/>
<g clip-path="url(#clip2)">
<path d="M288.281 86.4773C290.209 91.7185 294.945 95.0942 300.461 95.8423C302.708 96.1418 304.989 96.0102 307.19 95.454C309.351 94.9162 311.407 93.9992 313.27 92.7429C319.65 88.4261 322.692 80.6668 320.192 73.8533C317.772 67.3138 310.986 63.664 303.777 64.4311C302.099 64.611 300.45 65.0195 298.875 65.6461C298.356 65.8558 297.845 66.0853 297.342 66.3346C295.205 67.3969 293.283 68.8726 291.68 70.6824C287.796 75.085 286.293 81.0765 288.281 86.4773Z" fill="#FFC702"/>
<path d="M300.1 82.9228C301.526 86.8476 303.49 90.5385 305.933 93.8816C306.337 94.4295 306.751 94.9576 307.173 95.4659C309.335 94.928 311.391 94.0111 313.254 92.7548C312.12 91.5628 311.085 90.2742 310.159 88.9025C308.426 86.3326 307.009 83.5493 305.939 80.6167C304.698 77.2919 303.924 73.7994 303.641 70.2464C303.486 68.3085 303.532 66.359 303.777 64.4311C302.099 64.6109 300.45 65.0195 298.875 65.6461C298.356 65.8558 297.845 66.0853 297.342 66.3346C297.257 68.3105 297.326 70.2904 297.549 72.2547C297.968 75.9069 298.825 79.4906 300.1 82.9228Z" fill="#453C36"/>
<path d="M288.281 86.4773C290.209 91.7184 294.945 95.0942 300.461 95.8423C299.674 94.9358 298.94 93.9811 298.264 92.9835C296.527 90.4119 295.106 87.6262 294.033 84.6905C292.791 81.3661 292.017 77.8735 291.735 74.3202C291.645 73.1099 291.627 71.895 291.682 70.6824C287.796 75.085 286.293 81.0765 288.281 86.4773Z" fill="#453C36"/>
<path d="M312.119 76.1952C311.986 77.3387 311.333 78.1963 310.664 78.101C309.996 78.0057 309.561 77.0218 309.697 75.8783C309.832 74.7348 310.48 73.8748 311.151 73.9724C311.823 74.0701 312.252 75.0612 312.119 76.1952Z" fill="#744E32"/>
<path d="M319.684 76.6621C319.551 77.8056 318.898 78.6632 318.23 78.5679C317.561 78.4726 317.127 77.4887 317.262 76.3452C317.398 75.2017 318.046 74.3416 318.714 74.4393C319.383 74.537 319.818 75.5185 319.684 76.6621Z" fill="#744E32"/>
<path d="M288.38 83.0896L284.806 86.6035C284.742 86.7055 284.703 86.8219 284.692 86.943C284.68 87.064 284.697 87.1861 284.74 87.2991C284.784 87.4121 284.853 87.5126 284.941 87.5922C285.03 87.6718 285.136 87.7282 285.25 87.7566L290.246 87.7899L288.38 83.0896Z" fill="#453C36"/>
<path d="M316.001 67.5805C316.425 66.5461 316.97 65.5699 317.625 64.674C318.171 63.9112 318.838 63.2512 319.599 62.7229C320.402 62.1644 321.36 61.8956 322.325 61.9582H322.382C322.438 61.9635 322.49 61.9918 322.526 62.0367C322.562 62.0816 322.579 62.1395 322.574 62.1976C322.569 62.2557 322.542 62.3093 322.498 62.3466C322.455 62.3839 322.399 62.4019 322.343 62.3965H322.293C321.42 62.3399 320.553 62.5836 319.827 63.0898C318.738 63.8045 317.871 64.9718 317.285 65.9486C316.993 66.4417 316.768 66.9015 316.619 67.2112C316.543 67.3732 316.488 67.5043 316.449 67.5924L316.407 67.6948V67.721C316.397 67.7478 316.382 67.7722 316.362 67.7928C316.343 67.8135 316.32 67.83 316.295 67.8414C316.269 67.8527 316.242 67.8588 316.214 67.8592C316.186 67.8596 316.159 67.8544 316.133 67.8437C316.107 67.8331 316.083 67.8173 316.063 67.7972C316.044 67.7772 316.028 67.7532 316.017 67.7268C316.006 67.7004 316 67.6719 315.999 67.6432C315.999 67.6144 316.004 67.5858 316.014 67.559L316.001 67.5805Z" fill="#2D221C"/>
<path d="M310.8 67.9284C310.763 67.3173 310.768 66.7043 310.816 66.094C310.885 64.9184 311.141 63.7627 311.572 62.673C311.812 62.089 312.143 61.5497 312.551 61.0768C312.984 60.5857 313.52 60.2043 314.118 59.9619C314.17 59.9454 314.226 59.9499 314.274 59.9743C314.323 59.9988 314.361 60.0414 314.38 60.0937C314.4 60.1459 314.399 60.2038 314.379 60.2559C314.359 60.3079 314.321 60.3501 314.272 60.374C313.735 60.5902 313.254 60.9327 312.866 61.3746C312.307 62.043 311.897 62.8313 311.666 63.6831C311.44 64.4796 311.298 65.2991 311.241 66.1274C311.204 66.6419 311.2 67.0803 311.204 67.3995C311.204 67.5568 311.204 67.6806 311.204 67.764C311.204 67.8069 311.204 67.8403 311.204 67.8617V67.8927C311.209 67.9508 311.191 68.0084 311.155 68.0529C311.118 68.0973 311.066 68.125 311.01 68.1297C310.954 68.1345 310.898 68.1159 310.856 68.0782C310.813 68.0404 310.786 67.9865 310.781 67.9284H310.8Z" fill="#2D221C"/>
<path d="M321.654 62.1298C321.637 62.3558 321.686 62.5819 321.793 62.7794C321.9 62.977 322.061 63.1372 322.256 63.2399C322.451 63.3427 322.671 63.3833 322.888 63.3566C323.106 63.33 323.31 63.2373 323.477 63.0903C323.643 62.9432 323.764 62.7484 323.824 62.5303C323.883 62.3123 323.88 62.0808 323.813 61.8649C323.746 61.6491 323.619 61.4586 323.448 61.3175C323.276 61.1764 323.069 61.091 322.851 61.072C322.705 61.0587 322.558 61.0756 322.419 61.1217C322.279 61.1678 322.15 61.2423 322.038 61.3408C321.927 61.4392 321.836 61.5597 321.77 61.6952C321.703 61.8306 321.664 61.9784 321.654 62.1298Z" fill="#2D221C"/>
<path d="M313.401 60.1048C313.385 60.3313 313.433 60.5578 313.541 60.7557C313.648 60.9536 313.81 61.114 314.005 61.2166C314.201 61.3191 314.421 61.3593 314.639 61.332C314.856 61.3047 315.061 61.2112 315.227 61.0632C315.394 60.9152 315.514 60.7195 315.573 60.5007C315.632 60.2819 315.627 60.0499 315.558 59.8341C315.49 59.6183 315.361 59.4283 315.189 59.2882C315.017 59.1481 314.808 59.0642 314.589 59.0471C314.444 59.0354 314.298 59.0535 314.16 59.1003C314.022 59.1472 313.894 59.2219 313.783 59.3202C313.673 59.4185 313.582 59.5384 313.517 59.673C313.451 59.8077 313.412 59.9544 313.401 60.1048Z" fill="#2D221C"/>
<path d="M312.592 79.6352C312.566 79.901 312.592 80.1695 312.667 80.4249C312.743 80.6802 312.868 80.9172 313.034 81.1217C313.199 81.3262 313.403 81.494 313.633 81.6153C313.862 81.7366 314.113 81.8088 314.37 81.8276C314.627 81.8465 314.885 81.8116 315.129 81.725C315.373 81.6384 315.598 81.5019 315.789 81.3237C315.981 81.1454 316.137 80.9289 316.246 80.6872C316.356 80.4454 316.418 80.1833 316.428 79.9163C316.438 79.822 316.483 79.7353 316.553 79.6744C316.623 79.6136 316.714 79.5834 316.805 79.5902C316.896 79.597 316.982 79.6402 317.043 79.7108C317.104 79.7814 317.137 79.8739 317.133 79.9688C317.072 80.68 316.745 81.338 316.221 81.8013C315.696 82.2646 315.018 82.4962 314.331 82.4462C313.644 82.3963 313.003 82.0688 312.546 81.5342C312.09 80.9997 311.854 80.3007 311.889 79.5876C311.896 79.4909 311.939 79.401 312.01 79.3375C312.081 79.2741 312.173 79.2423 312.266 79.2493C312.359 79.2562 312.446 79.3013 312.507 79.3746C312.569 79.4479 312.599 79.5433 312.592 79.64V79.6352Z" fill="#744E32"/>
<path d="M292.879 60.6837C292.036 55.4164 292.84 51.5284 295.637 51.0472C298.434 50.5659 302.152 53.7988 302.991 59.0661C303.83 64.3335 299.68 69.8867 298.696 70.1226C297.846 70.3274 293.725 65.9535 292.879 60.6837Z" fill="#F3F1EC" fill-opacity="0.8"/>
<path d="M287.716 70.3632C284.2 68.7217 282.196 66.5872 283.067 64.5788C283.938 62.5705 287.433 61.5128 290.942 63.1494C294.451 64.7861 296.069 69.7914 295.803 70.5347C295.573 71.1589 291.232 72.0046 287.716 70.3632Z" fill="#D7CDC5" fill-opacity="0.8"/>
</g>
<path d="M566 185.788C598 178.621 666.7 176.688 685.5 226.288" stroke="#D7D7D7" stroke-dasharray="5 5"/>
<path d="M120.5 192.5C135.5 192.5 146.4 197.5 154 205.5C163.5 215.5 172.5 229.5 181 224.5" stroke="#D7D7D7" stroke-dasharray="5 5"/>
<g clip-path="url(#clip3)">
<path d="M518.205 44.8632C516.936 48.2408 513.816 50.4163 510.184 50.8984C508.705 51.0914 507.203 51.0066 505.753 50.6481C504.33 50.3015 502.976 49.7106 501.749 48.901C497.548 46.119 495.544 41.1186 497.191 36.7277C498.784 32.5133 503.253 30.1613 508.001 30.6556C509.106 30.7715 510.191 31.0348 511.229 31.4386C511.571 31.5737 511.907 31.7216 512.238 31.8823C513.646 32.5669 514.911 33.5179 515.967 34.6842C518.525 37.5214 519.514 41.3827 518.205 44.8632Z" fill="#FFC702"/>
<path d="M510.422 42.5725C509.483 45.1018 508.189 47.4804 506.581 49.6348C506.315 49.9879 506.042 50.3283 505.764 50.6558C504.341 50.3092 502.986 49.7183 501.759 48.9086C502.506 48.1405 503.188 47.3101 503.798 46.4261C504.939 44.7699 505.872 42.9763 506.576 41.0864C507.394 38.9437 507.903 36.693 508.09 34.4033C508.192 33.1544 508.162 31.898 508.001 30.6556C509.106 30.7715 510.191 31.0348 511.229 31.4386C511.571 31.5737 511.907 31.7216 512.238 31.8823C512.294 33.1557 512.249 34.4316 512.102 35.6975C511.826 38.0511 511.262 40.3606 510.422 42.5725Z" fill="#453C36"/>
<path d="M518.205 44.8632C516.936 48.2408 513.817 50.4163 510.184 50.8984C510.703 50.3142 511.186 49.699 511.631 49.056C512.775 47.3988 513.711 45.6036 514.417 43.7117C515.235 41.5693 515.745 39.3185 515.931 37.0286C515.99 36.2486 516.002 35.4657 515.966 34.6842C518.525 37.5214 519.514 41.3827 518.205 44.8632Z" fill="#453C36"/>
<path d="M502.507 38.2369C502.595 38.9738 503.025 39.5265 503.465 39.4651C503.905 39.4037 504.191 38.7696 504.102 38.0327C504.013 37.2958 503.586 36.7415 503.144 36.8045C502.702 36.8674 502.419 37.5061 502.507 38.2369Z" fill="#744E32"/>
<path d="M497.525 38.5378C497.613 39.2747 498.043 39.8274 498.483 39.766C498.923 39.7046 499.209 39.0705 499.12 38.3336C499.031 37.5967 498.604 37.0424 498.164 37.1054C497.723 37.1683 497.437 37.8009 497.525 38.5378Z" fill="#744E32"/>
<path d="M518.14 42.68L520.493 44.9445C520.535 45.0103 520.561 45.0853 520.569 45.1633C520.577 45.2413 520.566 45.32 520.537 45.3928C520.508 45.4656 520.463 45.5304 520.404 45.5817C520.346 45.633 520.276 45.6693 520.201 45.6876L516.911 45.7091L518.14 42.68Z" fill="#453C36"/>
<path d="M499.951 32.6852C499.672 32.0186 499.312 31.3895 498.881 30.8122C498.522 30.3206 498.082 29.8952 497.581 29.5548C497.052 29.1948 496.422 29.0216 495.786 29.0619H495.748C495.711 29.0654 495.677 29.0836 495.654 29.1125C495.63 29.1415 495.618 29.1788 495.622 29.2162C495.625 29.2537 495.643 29.2882 495.672 29.3123C495.7 29.3363 495.737 29.3479 495.774 29.3444H495.807C496.382 29.3079 496.953 29.465 497.431 29.7912C498.148 30.2518 498.719 31.0041 499.105 31.6335C499.297 31.9513 499.445 32.2477 499.544 32.4472C499.594 32.5516 499.63 32.6361 499.656 32.6929L499.683 32.7589V32.7758C499.69 32.793 499.7 32.8088 499.713 32.8221C499.725 32.8354 499.741 32.846 499.757 32.8533C499.774 32.8607 499.792 32.8646 499.81 32.8648C499.829 32.8651 499.847 32.8617 499.864 32.8549C499.881 32.848 499.896 32.8378 499.909 32.8249C499.923 32.812 499.933 32.7965 499.94 32.7795C499.948 32.7625 499.951 32.7442 499.952 32.7256C499.952 32.7071 499.949 32.6886 499.942 32.6714L499.951 32.6852Z" fill="#2D221C"/>
<path d="M503.376 32.9094C503.4 32.5156 503.396 32.1205 503.365 31.7272C503.319 30.9696 503.151 30.2248 502.867 29.5226C502.709 29.1462 502.491 28.7987 502.222 28.4939C501.937 28.1774 501.584 27.9316 501.19 27.7754C501.156 27.7648 501.12 27.7677 501.088 27.7835C501.056 27.7992 501.031 27.8267 501.018 27.8604C501.005 27.894 501.005 27.9314 501.018 27.9649C501.032 27.9984 501.057 28.0256 501.089 28.041C501.443 28.1803 501.76 28.4011 502.015 28.6858C502.383 29.1166 502.653 29.6246 502.805 30.1735C502.954 30.6869 503.048 31.215 503.085 31.7487C503.109 32.0804 503.112 32.3628 503.109 32.5686C503.109 32.6699 503.109 32.7497 503.109 32.8035C503.109 32.8311 503.109 32.8526 503.109 32.8664V32.8864C503.106 32.9238 503.118 32.961 503.142 32.9896C503.166 33.0183 503.2 33.0361 503.237 33.0391C503.274 33.0422 503.311 33.0302 503.339 33.0059C503.367 32.9816 503.385 32.9469 503.388 32.9094H503.376Z" fill="#2D221C"/>
<path d="M496.228 29.1725C496.239 29.3182 496.207 29.4639 496.136 29.5912C496.066 29.7185 495.96 29.8218 495.831 29.888C495.703 29.9542 495.558 29.9803 495.415 29.9631C495.272 29.946 495.137 29.8863 495.028 29.7915C494.918 29.6967 494.839 29.5712 494.799 29.4307C494.76 29.2901 494.762 29.1409 494.806 29.0018C494.85 28.8628 494.934 28.74 495.047 28.6491C495.159 28.5582 495.296 28.5031 495.44 28.4909C495.536 28.4823 495.633 28.4931 495.724 28.5229C495.816 28.5526 495.901 28.6006 495.975 28.6641C496.048 28.7275 496.108 28.8051 496.152 28.8924C496.195 28.9797 496.221 29.075 496.228 29.1725Z" fill="#2D221C"/>
<path d="M501.663 27.8675C501.674 28.0135 501.642 28.1595 501.571 28.287C501.5 28.4145 501.394 28.5179 501.265 28.584C501.136 28.6501 500.991 28.676 500.848 28.6584C500.704 28.6408 500.57 28.5805 500.46 28.4852C500.351 28.3898 500.272 28.2637 500.233 28.1227C500.194 27.9817 500.197 27.8322 500.242 27.6931C500.287 27.554 500.372 27.4316 500.485 27.3413C500.599 27.251 500.736 27.1969 500.88 27.1859C500.976 27.1783 501.072 27.19 501.163 27.2202C501.254 27.2504 501.338 27.2986 501.411 27.3619C501.484 27.4252 501.543 27.5025 501.587 27.5893C501.63 27.676 501.656 27.7706 501.663 27.8675Z" fill="#2D221C"/>
<path d="M502.195 40.4538C502.213 40.6251 502.196 40.7981 502.146 40.9627C502.096 41.1273 502.014 41.28 501.905 41.4117C501.796 41.5435 501.661 41.6517 501.51 41.7299C501.359 41.808 501.194 41.8546 501.025 41.8667C500.855 41.8788 500.685 41.8563 500.525 41.8006C500.364 41.7448 500.216 41.6568 500.09 41.5419C499.964 41.427 499.861 41.2875 499.789 41.1318C499.717 40.976 499.676 40.807 499.669 40.635C499.663 40.5742 499.633 40.5183 499.587 40.4791C499.541 40.4399 499.481 40.4204 499.421 40.4248C499.361 40.4292 499.305 40.457 499.264 40.5025C499.224 40.548 499.203 40.6076 499.205 40.6688C499.245 41.1271 499.461 41.5511 499.806 41.8497C500.151 42.1483 500.598 42.2975 501.05 42.2653C501.503 42.2332 501.925 42.0221 502.226 41.6776C502.526 41.3331 502.682 40.8827 502.658 40.4231C502.654 40.3608 502.625 40.3028 502.579 40.262C502.532 40.2211 502.472 40.2006 502.41 40.2051C502.349 40.2096 502.292 40.2386 502.251 40.2858C502.211 40.3331 502.191 40.3946 502.195 40.4569V40.4538Z" fill="#744E32"/>
<path d="M515.177 28.2406C515.732 24.8461 515.203 22.3405 513.361 22.0304C511.519 21.7203 509.07 23.8037 508.518 27.1982C507.966 30.5927 510.699 34.1714 511.347 34.3234C511.907 34.4555 514.62 31.6367 515.177 28.2406Z" fill="#F3F1EC" fill-opacity="0.8"/>
<path d="M518.578 34.4785C520.893 33.4207 522.213 32.0451 521.639 30.7508C521.066 29.4566 518.764 28.7749 516.453 29.8297C514.142 30.8844 513.076 34.11 513.252 34.589C513.403 34.9913 516.262 35.5363 518.578 34.4785Z" fill="#D7CDC5" fill-opacity="0.8"/>
</g>
<path d="M528 47.4878C535.337 50.0894 551.986 53.7317 559.88 47.4878C567.074 41.7976 560.997 35 554.566 35C546.976 35 539.386 52.9512 591 67" stroke="#D7D7D7" stroke-dasharray="4 4"/>
<path d="M275 88.5575C267.663 91.1591 252.222 92.8555 243.12 88.5575C231.5 83.0697 236 73.0697 244 74.0697C252.64 75.1497 241 98.0697 195 74.0697" stroke="#D7D7D7" stroke-dasharray="4 4"/>
<path d="M91.1544 342.574C98.6836 363.045 117.179 376.231 138.717 379.153C147.491 380.323 156.398 379.809 164.993 377.636C173.432 375.536 181.463 371.954 188.738 367.047C213.65 350.185 225.531 319.878 215.768 293.265C206.318 267.721 179.818 253.466 151.666 256.462C145.112 257.164 138.676 258.76 132.525 261.208C130.496 262.027 128.501 262.923 126.539 263.897C118.193 268.046 110.688 273.81 104.427 280.879C89.2609 298.075 83.3919 321.478 91.1544 342.574Z" fill="#FFC702"/>
<path d="M137.308 328.69C142.875 344.02 150.546 358.437 160.084 371.495C161.663 373.635 163.279 375.697 164.93 377.683C173.369 375.582 181.4 372.001 188.675 367.093C184.247 362.437 180.203 357.404 176.587 352.046C169.822 342.008 164.288 331.137 160.111 319.682C155.264 306.696 152.242 293.054 151.137 279.176C150.532 271.607 150.709 263.992 151.666 256.462C145.112 257.164 138.676 258.76 132.525 261.208C130.497 262.026 128.501 262.923 126.539 263.897C126.206 271.615 126.476 279.348 127.347 287.021C128.983 301.286 132.329 315.284 137.308 328.69Z" fill="#453C36"/>
<path d="M91.1544 342.574C98.6836 363.045 117.179 376.231 138.717 379.153C135.644 375.612 132.779 371.883 130.138 367.986C123.355 357.942 117.805 347.061 113.616 335.595C108.765 322.609 105.743 308.967 104.642 295.088C104.289 290.361 104.22 285.615 104.436 280.879C89.2609 298.075 83.3919 321.478 91.1544 342.574Z" fill="#453C36"/>
<path d="M184.242 302.412C183.721 306.878 181.173 310.228 178.561 309.856C175.95 309.484 174.254 305.641 174.783 301.174C175.313 296.708 177.843 293.348 180.464 293.73C183.084 294.111 184.762 297.982 184.242 302.412Z" fill="#744E32"/>
<path d="M213.784 304.236C213.264 308.702 210.715 312.052 208.104 311.68C205.492 311.308 203.796 307.465 204.326 302.998C204.855 298.531 207.386 295.172 209.997 295.554C212.609 295.935 214.305 299.769 213.784 304.236Z" fill="#744E32"/>
<path d="M91.5404 329.341L77.5858 343.067C77.3362 343.465 77.1824 343.92 77.1374 344.392C77.0924 344.865 77.1575 345.342 77.3272 345.784C77.4969 346.225 77.7662 346.617 78.1126 346.928C78.459 347.239 78.8723 347.46 79.3178 347.57L98.8273 347.701L91.5404 329.341Z" fill="#453C36"/>
<path d="M199.4 268.763C201.056 264.723 203.187 260.91 205.744 257.411C207.874 254.431 210.481 251.853 213.453 249.79C216.588 247.608 220.328 246.558 224.096 246.803H224.32C224.539 246.824 224.741 246.934 224.882 247.109C225.022 247.285 225.09 247.511 225.07 247.738C225.05 247.965 224.943 248.174 224.774 248.32C224.605 248.466 224.387 248.536 224.168 248.515H223.97C220.561 248.294 217.176 249.245 214.341 251.223C210.088 254.014 206.704 258.574 204.416 262.389C203.276 264.315 202.397 266.111 201.814 267.321C201.517 267.954 201.302 268.465 201.15 268.81L200.988 269.21V269.312C200.948 269.417 200.888 269.512 200.813 269.593C200.737 269.673 200.647 269.738 200.548 269.782C200.448 269.827 200.341 269.85 200.232 269.852C200.124 269.854 200.016 269.833 199.916 269.791C199.815 269.75 199.723 269.688 199.645 269.61C199.567 269.531 199.505 269.438 199.462 269.335C199.42 269.231 199.397 269.12 199.395 269.008C199.394 268.896 199.413 268.784 199.453 268.679L199.4 268.763Z" fill="#2D221C"/>
<path d="M179.091 270.122C178.947 267.735 178.968 265.341 179.154 262.957C179.425 258.365 180.423 253.851 182.106 249.594C183.043 247.313 184.334 245.207 185.929 243.36C187.621 241.442 189.715 239.952 192.049 239.005C192.251 238.941 192.469 238.958 192.658 239.054C192.848 239.149 192.996 239.316 193.072 239.52C193.149 239.724 193.147 239.95 193.069 240.153C192.991 240.356 192.841 240.521 192.651 240.615C190.553 241.459 188.673 242.797 187.158 244.523C184.975 247.134 183.375 250.213 182.474 253.54C181.591 256.651 181.035 259.852 180.814 263.087C180.67 265.097 180.652 266.809 180.67 268.056C180.67 268.67 180.67 269.154 180.67 269.48C180.67 269.648 180.67 269.778 180.67 269.862V269.982C180.688 270.21 180.618 270.435 180.476 270.608C180.334 270.782 180.131 270.89 179.912 270.908C179.693 270.927 179.476 270.854 179.308 270.707C179.141 270.56 179.037 270.349 179.019 270.122H179.091Z" fill="#2D221C"/>
<path d="M221.475 247.473C221.411 248.356 221.6 249.239 222.019 250.01C222.438 250.782 223.067 251.408 223.828 251.809C224.59 252.21 225.448 252.369 226.297 252.265C227.145 252.161 227.944 251.799 228.594 251.224C229.244 250.65 229.715 249.889 229.949 249.037C230.182 248.186 230.168 247.281 229.906 246.438C229.645 245.595 229.149 244.851 228.481 244.3C227.812 243.749 227.001 243.415 226.151 243.341C225.581 243.289 225.007 243.355 224.462 243.535C223.918 243.716 223.413 244.006 222.978 244.391C222.543 244.776 222.186 245.246 221.928 245.775C221.67 246.304 221.516 246.882 221.475 247.473Z" fill="#2D221C"/>
<path d="M189.249 239.563C189.184 240.448 189.374 241.333 189.794 242.106C190.214 242.879 190.845 243.505 191.609 243.906C192.372 244.307 193.233 244.463 194.082 244.357C194.932 244.25 195.731 243.885 196.38 243.307C197.029 242.729 197.499 241.964 197.729 241.11C197.959 240.255 197.939 239.349 197.672 238.506C197.406 237.663 196.904 236.921 196.23 236.374C195.557 235.827 194.742 235.499 193.889 235.432C193.322 235.386 192.753 235.457 192.213 235.64C191.673 235.823 191.173 236.115 190.742 236.499C190.311 236.882 189.957 237.351 189.701 237.877C189.445 238.403 189.291 238.976 189.249 239.563Z" fill="#2D221C"/>
<path d="M186.091 315.849C185.988 316.887 186.087 317.936 186.383 318.933C186.679 319.93 187.165 320.856 187.813 321.655C188.461 322.453 189.256 323.109 190.153 323.583C191.05 324.056 192.029 324.338 193.033 324.412C194.037 324.486 195.045 324.349 195.997 324.011C196.949 323.673 197.825 323.14 198.575 322.444C199.324 321.747 199.931 320.902 200.36 319.958C200.788 319.013 201.029 317.989 201.068 316.947C201.107 316.578 201.282 316.239 201.557 316.002C201.831 315.764 202.184 315.646 202.541 315.673C202.897 315.699 203.23 315.868 203.47 316.144C203.709 316.42 203.835 316.781 203.823 317.151C203.585 319.929 202.305 322.5 200.259 324.309C198.212 326.119 195.562 327.023 192.879 326.828C190.196 326.633 187.694 325.354 185.911 323.266C184.128 321.178 183.206 318.448 183.344 315.663C183.371 315.285 183.54 314.934 183.816 314.686C184.092 314.438 184.452 314.314 184.816 314.341C185.18 314.368 185.519 314.544 185.758 314.831C185.997 315.117 186.117 315.49 186.091 315.867V315.849Z" fill="#744E32"/>
<path d="M109.111 241.825C105.818 221.25 108.959 206.064 119.88 204.184C130.802 202.305 145.322 214.932 148.597 235.506C151.873 256.08 135.666 277.771 131.825 278.692C128.504 279.493 112.414 262.408 109.111 241.825Z" fill="#EEEBE6" fill-opacity="0.8"/>
<path d="M88.9468 279.632C75.2166 273.221 67.3912 264.883 70.7924 257.039C74.1935 249.194 87.843 245.063 101.546 251.456C115.25 257.848 121.567 277.399 120.526 280.302C119.629 282.74 102.677 286.044 88.9468 279.632Z" fill="#D3CAC2" fill-opacity="0.8"/>
<path d="M342.867 92.902L351.175 104H346.525L340.604 95.816L334.652 104H330.002L338.341 92.871L330.312 82.145H334.962L340.604 89.988L346.277 82.145H350.927L342.867 92.902ZM352.293 104V88.841H356.168V104H352.293ZM352.076 81.804H356.354V85.617H352.076V81.804ZM368.348 88.469C370.167 88.469 371.521 88.9857 372.409 90.019C373.298 91.0523 373.742 92.6127 373.742 94.7V104H369.867V94.917C369.867 93.739 369.64 92.8813 369.185 92.344C368.751 91.8067 368.059 91.538 367.108 91.538C365.992 91.538 365.093 91.8893 364.411 92.592C363.75 93.2947 363.419 94.235 363.419 95.413V104H359.544V88.841H363.326V91.104C363.843 90.2567 364.535 89.6057 365.403 89.151C366.271 88.6963 367.253 88.469 368.348 88.469ZM391.767 104.248C390.176 104.248 388.791 103.928 387.613 103.287C386.456 102.646 385.567 101.737 384.947 100.559C384.327 99.381 384.017 98.0067 384.017 96.436C384.017 94.8653 384.338 93.4807 384.978 92.282C385.64 91.0627 386.57 90.1223 387.768 89.461C388.967 88.7997 390.352 88.469 391.922 88.469C392.997 88.469 394.041 88.6447 395.053 88.996C396.087 89.3267 396.913 89.7813 397.533 90.36L396.417 93.088C395.777 92.5713 395.095 92.1787 394.371 91.91C393.669 91.6413 392.966 91.507 392.263 91.507C390.92 91.507 389.876 91.9307 389.132 92.778C388.388 93.6047 388.016 94.8033 388.016 96.374C388.016 97.924 388.388 99.1227 389.132 99.97C389.876 100.797 390.92 101.21 392.263 101.21C392.966 101.21 393.669 101.076 394.371 100.807C395.095 100.538 395.777 100.146 396.417 99.629L397.533 102.326C396.872 102.925 396.025 103.401 394.991 103.752C393.958 104.083 392.883 104.248 391.767 104.248ZM408.175 88.469C409.994 88.469 411.347 88.9857 412.236 90.019C413.125 91.0523 413.569 92.6127 413.569 94.7V104H409.694V94.917C409.694 93.739 409.467 92.8813 409.012 92.344C408.578 91.8067 407.886 91.538 406.935 91.538C405.819 91.538 404.92 91.8893 404.238 92.592C403.577 93.2947 403.246 94.235 403.246 95.413V104H399.371V82.145H403.246V90.949C403.763 90.143 404.445 89.5333 405.292 89.12C406.16 88.686 407.121 88.469 408.175 88.469ZM423.395 88.469C425.523 88.469 427.104 88.9857 428.138 90.019C429.171 91.0523 429.688 92.6437 429.688 94.793V104H425.999V101.675C425.647 102.481 425.089 103.111 424.325 103.566C423.581 104.021 422.713 104.248 421.721 104.248C420.708 104.248 419.788 104.041 418.962 103.628C418.135 103.215 417.484 102.646 417.009 101.923C416.533 101.2 416.296 100.394 416.296 99.505C416.296 98.389 416.575 97.5107 417.133 96.87C417.711 96.2293 418.641 95.7643 419.923 95.475C421.204 95.1857 422.971 95.041 425.224 95.041H425.999V94.328C425.999 93.2947 425.771 92.5507 425.317 92.096C424.883 91.6413 424.149 91.414 423.116 91.414C422.31 91.414 421.462 91.5587 420.574 91.848C419.706 92.1167 418.848 92.499 418.001 92.995L416.916 90.329C417.763 89.7917 418.786 89.3473 419.985 88.996C421.183 88.6447 422.32 88.469 423.395 88.469ZM422.496 101.458C423.529 101.458 424.366 101.117 425.007 100.435C425.668 99.7323 425.999 98.8333 425.999 97.738V97.087H425.441C424.056 97.087 422.981 97.149 422.217 97.273C421.452 97.397 420.904 97.614 420.574 97.924C420.243 98.234 420.078 98.6577 420.078 99.195C420.078 99.8563 420.305 100.404 420.76 100.838C421.214 101.251 421.793 101.458 422.496 101.458ZM422.217 86.857L417.691 80.533H421.628L424.697 86.857H422.217ZM439.919 104.248C438.369 104.248 437.005 103.928 435.827 103.287C434.67 102.646 433.771 101.727 433.13 100.528C432.489 99.3293 432.169 97.9343 432.169 96.343C432.169 94.7517 432.489 93.367 433.13 92.189C433.771 90.9903 434.67 90.0707 435.827 89.43C437.005 88.7893 438.369 88.469 439.919 88.469C441.469 88.469 442.823 88.7893 443.98 89.43C445.158 90.0707 446.057 90.9903 446.677 92.189C447.318 93.367 447.638 94.7517 447.638 96.343C447.638 97.9343 447.318 99.3293 446.677 100.528C446.057 101.727 445.158 102.646 443.98 103.287C442.823 103.928 441.469 104.248 439.919 104.248ZM439.888 101.241C441.149 101.241 442.11 100.828 442.771 100.001C443.432 99.1743 443.763 97.955 443.763 96.343C443.763 94.7517 443.432 93.5427 442.771 92.716C442.11 91.8687 441.159 91.445 439.919 91.445C438.679 91.445 437.718 91.8687 437.036 92.716C436.375 93.5427 436.044 94.7517 436.044 96.343C436.044 97.955 436.375 99.1743 437.036 100.001C437.697 100.828 438.648 101.241 439.888 101.241ZM458.664 97.428L457.455 82.114L462.229 82.145L461.02 97.428H458.664ZM457.672 99.722H462.012V104H457.672V99.722Z" fill="#453C36"/>
<defs>
<filter id="filter0_f" x="6" y="209" width="257" height="252" filterUnits="userSpaceOnUse" color-interpolation-filters="sRGB">
<feFlood flood-opacity="0" result="BackgroundImageFix"/>
<feBlend mode="normal" in="SourceGraphic" in2="BackgroundImageFix" result="shape"/>
<feGaussianBlur stdDeviation="35" result="effect1_foregroundBlur"/>
</filter>
<filter id="filter1_f" x="304" y="86" width="280" height="274" filterUnits="userSpaceOnUse" color-interpolation-filters="sRGB">
<feFlood flood-opacity="0" result="BackgroundImageFix"/>
<feBlend mode="normal" in="SourceGraphic" in2="BackgroundImageFix" result="shape"/>
<feGaussianBlur stdDeviation="40" result="effect1_foregroundBlur"/>
</filter>
<clipPath id="clip0">
<rect width="225.456" height="202.122" fill="white" transform="translate(344 358.547) rotate(-32.3222)"/>
</clipPath>
<clipPath id="clip1">
<rect width="333" height="385" fill="white" transform="translate(175 207)"/>
</clipPath>
<clipPath id="clip2">
<rect width="41" height="45" fill="white" transform="translate(281 51)"/>
</clipPath>
<clipPath id="clip3">
<rect width="27" height="29" fill="white" transform="matrix(-1 0 0 1 523 22)"/>
</clipPath>
</defs>
</svg>
