<svg width="564" height="623" viewBox="0 0 564 623" fill="none" xmlns="http://www.w3.org/2000/svg">
<path d="M548.487 212.685V237.389L524.753 250.967L501.018 237.389V212.685L524.753 199.107L548.487 212.685Z" stroke="#FFF4CC"/>
<path d="M496.989 212.685V237.389L473.255 250.967L449.52 237.389V212.685L473.255 199.107L496.989 212.685Z" stroke="#FFF4CC"/>
<path d="M523.495 170.275V194.978L499.761 208.557L476.027 194.978V170.275L499.761 156.696L523.495 170.275Z" stroke="#FFDD67"/>
<path d="M445.982 212.378V237.081L422.247 250.66L398.513 237.081V212.378L422.247 198.799L445.982 212.378Z" stroke="#FFDD67"/>
<path d="M471.997 170.275V194.978L448.263 208.557L424.529 194.978V170.275L448.263 156.696L471.997 170.275Z" stroke="#FFF4CC"/>
<path d="M497.657 126.705V151.409L473.923 164.987L450.189 151.409V126.705L473.923 113.127L497.657 126.705Z" stroke="#FFDD67"/>
<path d="M289.946 72.8678V51.3079L310.668 39.4533L331.389 51.3079V72.8679L310.668 84.7225L289.946 72.8678Z" stroke="#FFF4CC"/>
<path d="M335.042 72.8678V51.3079L355.763 39.4533L376.484 51.3079V72.8679L355.763 84.7225L335.042 72.8678Z" stroke="#FFF4CC"/>
<path d="M311.831 110.005V88.4451L332.552 76.5905L353.273 88.4451V110.005L332.552 121.86L311.831 110.005Z" stroke="#FFDD67"/>
<path d="M379.707 73.1371V51.5772L400.428 39.7225L421.149 51.5772V73.1371L400.428 84.9918L379.707 73.1371Z" stroke="#FFDD67"/>
<path d="M356.926 110.005V88.4451L377.647 76.5905L398.368 88.4451V110.005L377.647 121.86L356.926 110.005Z" stroke="#FFF4CC"/>
<path d="M334.456 148.157V126.597L355.178 114.743L375.899 126.597V148.157L355.178 160.012L334.456 148.157Z" stroke="#FFDD67"/>
<path d="M53.4624 134.784V156.343L74.1836 168.198L94.9048 156.343V134.784L74.1836 122.929L53.4624 134.784Z" stroke="#FFF4CC"/>
<path d="M98.5574 134.784V156.343L119.279 168.198L140 156.343V134.784L119.279 122.929L98.5574 134.784Z" stroke="#FFF4CC"/>
<path d="M75.3468 97.6464V119.206L96.068 131.061L116.789 119.206V97.6463L96.068 85.7916L75.3468 97.6464Z" stroke="#FFDD67"/>
<path d="M143.223 134.514V156.074L163.944 167.929L184.665 156.074V134.514L163.944 122.66L143.223 134.514Z" stroke="#FFDD67"/>
<path d="M120.442 97.6464V119.206L141.163 131.061L161.884 119.206V97.6463L141.163 85.7916L120.442 97.6464Z" stroke="#FFF4CC"/>
<path d="M97.9722 59.4941V81.0539L118.693 92.9086L139.415 81.0539V59.494L118.693 47.6393L97.9722 59.4941Z" stroke="#FFDD67"/>
<path d="M26.1757 408.493V386.933L46.8969 375.078L67.6181 386.933V408.493L46.8969 420.348L26.1757 408.493Z" stroke="#FFF4CC"/>
<path d="M71.2708 408.493V386.933L91.992 375.078L112.713 386.933V408.493L91.992 420.348L71.2708 408.493Z" stroke="#FFF4CC"/>
<path d="M48.0601 445.63V424.07L68.7813 412.216L89.5025 424.07V445.63L68.7813 457.485L48.0601 445.63Z" stroke="#FFDD67"/>
<path d="M115.936 408.763V387.203L136.658 375.348L157.379 387.203V408.763L136.658 420.617L115.936 408.763Z" stroke="#FFDD67"/>
<path d="M93.1551 445.63V424.07L113.876 412.216L134.597 424.07V445.63L113.876 457.485L93.1551 445.63Z" stroke="#FFF4CC"/>
<path d="M70.6856 483.783V462.223L91.4068 450.368L112.128 462.223V483.783L91.4068 495.638L70.6856 483.783Z" stroke="#FFDD67"/>
<path d="M144.415 470.287V444.064L169.606 429.652L194.798 444.064V470.287L169.606 484.699L144.415 470.287Z" stroke="#FFF4CC"/>
<path d="M199.009 470.287V444.064L224.2 429.652L249.391 444.064V470.287L224.2 484.699L199.009 470.287Z" stroke="#FFF4CC"/>
<path d="M170.909 515.247V489.023L196.1 474.612L221.292 489.023V515.247L196.1 529.659L170.909 515.247Z" stroke="#FFDD67"/>
<path d="M253.083 470.613V444.39L278.274 429.978L303.465 444.39V470.613L278.274 485.025L253.083 470.613Z" stroke="#FFDD67"/>
<path d="M320.29 387.517V361.294L345.481 346.882L370.672 361.294V387.518L345.481 401.93L320.29 387.517Z" stroke="#FFDD67"/>
<path d="M345.759 343.859V317.636L370.95 303.224L396.141 317.636V343.859L370.95 358.271L345.759 343.859Z" stroke="#FFDD67"/>
<path d="M225.503 515.247V489.023L250.694 474.612L275.885 489.023V515.247L250.694 529.659L225.503 515.247Z" stroke="#FFF4CC"/>
<path d="M198.301 561.435V535.212L223.492 520.8L248.683 535.212V561.436L223.492 575.848L198.301 561.435Z" stroke="#FFDD67"/>
<path d="M43.959 561.653V584.898L66.2956 597.677L88.6322 584.898V561.653L66.2956 548.874L43.959 561.653Z" stroke="#FFF4CC"/>
<path d="M92.4867 561.653V584.898L114.823 597.677L137.16 584.898V561.653L114.823 548.874L92.4867 561.653Z" stroke="#FFF4CC"/>
<path d="M67.5092 521.689V544.934L89.8458 557.713L112.182 544.934V521.689L89.8458 508.91L67.5092 521.689Z" stroke="#FFDD67"/>
<path d="M140.552 561.363V584.608L162.889 597.387L185.225 584.608V561.363L162.889 548.584L140.552 561.363Z" stroke="#FFDD67"/>
<path d="M116.037 521.689V544.934L138.374 557.713L160.71 544.934V521.689L138.374 508.91L116.037 521.689Z" stroke="#FFF4CC"/>
<path d="M91.8571 480.632V503.877L114.194 516.656L136.53 503.877V480.632L114.194 467.853L91.8571 480.632Z" stroke="#FFDD67"/>
<g filter="url(#filter0_d)">
<path d="M153.188 139.474L149.173 152.311C148.467 153.5 146.8 153.616 145.908 152.554L139.822 140.335L153.188 139.474Z" fill="#453C36"/>
<path d="M202.487 86.2509C214.695 79.2665 221.24 71.0803 217.399 64.3678C213.556 57.6382 200.529 55.1632 188.322 62.1476C176.114 69.132 171.965 87.1889 173.176 89.675C174.215 91.7958 190.28 93.2353 202.487 86.2509Z" fill="white" fill-opacity="0.8"/>
<path d="M191.641 113.303C201.063 118.007 208.877 118.703 211.47 113.504C214.065 108.321 210.211 99.1701 200.772 94.4681C191.351 89.7645 178.368 94.6735 177.335 96.4623C176.453 97.9953 182.218 108.583 191.641 113.303Z" fill="#EDE8E4" fill-opacity="0.8"/>
<path d="M88.9775 96.4959C75.7166 91.8101 67.8114 84.928 70.3887 77.6362C72.9645 70.3273 85.3376 65.5599 98.5985 70.2457C111.859 74.9315 119.175 91.9538 118.429 94.6164C117.769 96.8906 102.238 101.182 88.9775 96.4959Z" fill="white" fill-opacity="0.8"/>
<path d="M104.475 121.171C96.048 127.486 88.4849 129.57 85.0026 124.918C81.5219 120.284 83.6749 110.591 92.1192 104.275C100.546 97.9605 114.199 100.466 115.535 102.041C116.677 103.391 112.901 114.839 104.475 121.171Z" fill="#EDE8E4" fill-opacity="0.8"/>
<path d="M182.757 99.7971C182.824 100.535 182.856 101.276 182.89 102.034C182.933 103.467 182.923 104.886 182.842 106.295C182.507 112.554 181.015 118.45 178.583 123.704C178.526 123.848 178.451 123.976 178.394 124.102C172.184 137.155 160.212 146.177 146.202 146.611C134.177 146.986 123.254 140.982 115.96 131.294C114.919 129.917 113.957 128.464 113.077 126.952C110.29 122.151 108.31 116.69 107.346 110.808C107.234 110.143 107.14 109.477 107.062 108.809C106.899 107.388 106.785 105.927 106.739 104.461C106.622 100.872 106.893 97.353 107.507 93.993C107.671 93.1303 107.837 92.2849 108.056 91.4519C112.335 73.6774 126.364 60.421 143.444 59.883C158.384 59.3997 171.62 68.7939 178.321 82.8438C179.322 84.9334 180.16 87.1243 180.85 89.3978C181.821 92.684 182.484 96.1884 182.757 99.7971Z" fill="#453C36"/>
<path d="M182.757 99.7969C179.73 101.333 176.568 102.726 173.255 103.976C164.657 107.244 155.178 109.57 145.107 110.704C133.53 112.026 122.371 111.649 112.155 109.837C110.431 109.525 108.722 109.178 107.059 108.774C106.896 107.353 106.781 105.893 106.736 104.426C106.619 100.838 106.89 97.3185 107.504 93.9584C107.668 93.0958 107.834 92.2503 108.053 91.4174C111.335 92.315 114.826 93.0381 118.504 93.5366C126.126 94.5962 134.512 94.7217 143.194 93.7305C153.178 92.5872 162.419 90.1095 170.349 86.7293C173.181 85.5221 175.831 84.2102 178.318 82.8093C179.319 84.8989 180.157 87.0898 180.847 89.3633C181.821 92.6838 182.484 96.1882 182.757 99.7969Z" fill="#FFC702"/>
<path d="M178.376 124.104C172.167 137.156 160.195 146.178 146.185 146.612C134.159 146.988 123.236 140.984 115.943 131.296C118.186 131.802 120.507 132.216 122.908 132.553C130.53 133.612 138.915 133.738 147.598 132.747C157.582 131.603 166.822 129.126 174.753 125.746C175.986 125.219 177.2 124.677 178.376 124.104Z" fill="#FFC702"/>
<path d="M127.244 80.7229C127.483 83.3658 128.982 85.4105 130.596 85.2649C132.209 85.1193 133.32 82.8563 133.08 80.1962C132.841 77.5533 131.342 75.5086 129.728 75.6542C128.115 75.7998 127.004 78.0627 127.244 80.7229Z" fill="#FFC702"/>
<path d="M152.541 78.4397C152.78 81.0826 154.279 83.1273 155.893 82.9817C157.506 82.8361 158.616 80.5731 158.376 77.913C158.138 75.2701 156.638 73.2254 155.025 73.371C153.412 73.5166 152.301 75.7795 152.541 78.4397Z" fill="#FFC702"/>
<path d="M145.532 61.1654C145.529 61.1311 145.972 57.0252 147.752 52.591C148.642 50.3825 149.871 48.0915 151.551 46.1924C153.248 44.2918 155.432 42.797 158.186 42.2544C158.237 42.2497 158.287 42.2279 158.339 42.2233C158.662 42.1595 158.958 42.375 159.005 42.6995C159.068 43.0225 158.853 43.3188 158.528 43.3654C158.494 43.3685 158.443 43.3731 158.393 43.3949C155.929 43.8941 153.972 45.2127 152.4 46.9637C150.041 49.5815 148.583 53.1735 147.74 56.1043C147.318 57.5612 147.038 58.8668 146.879 59.7981C146.8 60.2551 146.748 60.6405 146.701 60.8869C146.677 61.0102 146.669 61.1147 146.659 61.1849L146.648 61.2551L146.649 61.2722C146.608 61.5873 146.335 61.8196 146.003 61.7804C145.725 61.7709 145.493 61.4977 145.532 61.1654Z" fill="#2D221C"/>
<path d="M137.264 60.804C137.262 60.7869 136.571 58.8769 135.242 56.4189C133.976 54.0935 132.13 51.2669 129.663 49.05C128.437 47.9322 127.036 46.9687 125.488 46.3124C123.941 45.6562 122.23 45.2916 120.387 45.3887C120.06 45.4009 119.826 45.6816 119.836 45.9921C119.849 46.3197 120.129 46.5539 120.44 46.5432C122.093 46.4631 123.627 46.7746 125.031 47.3746C127.136 48.2746 128.971 49.8218 130.513 51.5686C132.055 53.3153 133.288 55.2803 134.218 56.9611C134.862 58.1487 135.355 59.2115 135.684 59.9777C135.84 60.3616 135.971 60.6612 136.058 60.861C136.102 60.9608 136.126 61.0451 136.148 61.095L136.172 61.1621L136.173 61.1793C136.287 61.4805 136.613 61.6414 136.914 61.5277C137.217 61.4312 137.378 61.1052 137.264 60.804Z" fill="#2D221C"/>
<path d="M156.539 43.1813C156.86 44.8134 158.461 45.88 160.093 45.5597C161.725 45.2394 162.792 43.6378 162.472 42.0058C162.151 40.3737 160.55 39.3071 158.918 39.6274C157.269 39.9493 156.202 41.5508 156.539 43.1813Z" fill="#2D221C"/>
<path d="M122.335 44.9202C123.142 46.3872 122.598 48.2184 121.131 49.0255C119.664 49.8327 117.833 49.2886 117.026 47.8216C116.218 46.3546 116.762 44.5234 118.229 43.7162C119.696 42.909 121.528 43.4531 122.335 44.9202Z" fill="#2D221C"/>
<path d="M147.909 84.239C148.09 85.6759 147.66 87.047 146.839 88.1073C146.018 89.1676 144.788 89.9188 143.349 90.0832C141.913 90.2648 140.541 89.8349 139.481 89.0136C138.421 88.1923 137.67 86.9625 137.505 85.524C137.44 84.9935 136.957 84.6219 136.426 84.687C135.896 84.7522 135.524 85.2356 135.589 85.7661C136.083 89.701 139.657 92.4927 143.593 92.0164C147.528 91.5228 150.32 87.9489 149.843 84.0125C149.778 83.482 149.295 83.1104 148.764 83.1755C148.232 83.2236 147.844 83.7085 147.909 84.239Z" fill="#FFC702"/>
<path d="M112.19 120.865C112.208 120.445 111.876 120.084 111.465 120.08C111.442 120.075 110.491 120.026 109.562 119.657C109.093 119.466 108.64 119.203 108.293 118.851C107.947 118.5 107.708 118.06 107.606 117.45C107.548 117.038 107.162 116.752 106.735 116.82C106.323 116.878 106.037 117.264 106.105 117.691C106.242 118.645 106.685 119.405 107.238 119.952C107.645 120.367 108.126 120.674 108.584 120.913C109.294 121.258 109.979 121.435 110.507 121.527C111.036 121.62 111.394 121.637 111.418 121.642C111.825 121.608 112.171 121.285 112.19 120.865Z" fill="#2D221C"/>
</g>
<g filter="url(#filter1_d)">
<path d="M488.728 175.029C479.897 198.301 458.241 213.321 433.115 216.601C423.233 217.87 412.721 217.447 402.313 214.908C398.633 214.062 394.954 212.898 391.38 211.523C385.282 209.196 379.71 206.34 374.559 202.955C345.333 183.809 331.456 149.324 342.915 119.071C353.954 90.0872 384.967 73.7971 417.872 77.182C425.336 77.9225 432.905 79.7208 440.264 82.5768C442.682 83.5289 444.995 84.4809 447.308 85.6445C457.505 90.6161 466.231 97.1745 473.274 104.896C490.936 124.466 497.874 151.123 488.728 175.029Z" fill="#FFC702"/>
<path d="M434.692 159.267C427.754 177.567 418.608 194.069 407.99 207.926C406.097 210.359 404.205 212.686 402.313 214.908C398.633 214.061 394.954 212.898 391.379 211.523C385.282 209.196 379.71 206.339 374.559 202.954C379.5 197.983 384.231 192.271 388.751 185.818C396.215 175.24 402.838 162.758 408.095 149.007C414.087 133.245 417.556 117.484 418.608 102.992C419.133 93.6834 418.923 85.0094 417.872 77.1816C425.336 77.9221 432.905 79.7204 440.264 82.5764C442.682 83.5285 444.995 84.4805 447.308 85.6441C447.728 94.1065 447.413 102.886 446.361 111.878C444.574 127.322 440.685 143.294 434.692 159.267Z" fill="#453C36"/>
<path d="M488.728 175.028C479.897 198.3 458.241 213.321 433.115 216.6C436.585 212.686 439.949 208.455 443.208 203.906C450.672 193.328 457.295 180.846 462.551 167.095C468.544 151.334 472.013 135.572 473.064 121.08C473.485 115.474 473.59 110.079 473.274 104.896C490.936 124.465 497.874 151.122 488.728 175.028Z" fill="#453C36"/>
<path d="M379.71 129.437C380.341 134.515 383.285 138.323 386.333 137.9C389.382 137.477 391.38 133.14 390.749 128.062C390.118 122.985 387.174 119.177 384.126 119.6C381.077 119.917 379.08 124.36 379.71 129.437Z" fill="#744E32"/>
<path d="M345.123 131.447C345.754 136.524 348.697 140.332 351.746 140.015C354.795 139.592 356.792 135.255 356.161 130.177C355.531 125.1 352.587 121.292 349.538 121.715C346.49 121.927 344.492 126.369 345.123 131.447Z" fill="#744E32"/>
<path d="M488.308 160.008L504.708 175.663C505.969 177.567 504.918 180.212 502.71 180.741L479.897 180.847L488.308 160.008Z" fill="#453C36"/>
<path d="M361.944 91.1449C361.944 91.1449 359.315 84.5865 354.48 78.2397C352.062 75.0663 349.013 71.8929 345.439 69.5657C341.864 67.2386 337.659 65.8634 332.928 66.1808C332.823 66.1808 332.718 66.1808 332.613 66.1808C332.087 66.1808 331.667 66.7097 331.772 67.2386C331.772 67.7675 332.298 68.1906 332.823 68.0848C332.928 68.0848 332.928 68.0848 333.033 68.0848C337.239 67.7675 341.023 69.0368 344.282 71.1524C349.223 74.3258 353.218 79.5091 355.951 83.8461C357.318 86.0674 358.264 87.9715 359 89.4524C359.315 90.1929 359.631 90.7218 359.736 91.1449C359.841 91.3565 359.841 91.4622 359.946 91.568V91.6738C360.156 92.2027 360.682 92.4143 361.208 92.2027C361.944 92.2027 362.154 91.6738 361.944 91.1449Z" fill="#2D221C"/>
<path d="M385.703 92.7315C385.703 92.7315 386.018 89.3466 385.597 84.5865C385.282 80.1437 384.336 74.5373 382.128 69.3541C380.972 66.8154 379.605 64.3824 377.608 62.2668C375.715 60.1512 373.297 58.4587 370.459 57.2951C369.933 57.0836 369.408 57.4009 369.197 57.824C368.987 58.3529 369.303 58.8818 369.723 59.0934C372.351 60.1512 374.454 61.6321 376.136 63.5362C378.764 66.3922 380.446 69.9888 381.603 73.7969C382.759 77.6049 383.285 81.413 383.495 84.6922C383.705 87.0194 383.705 88.9234 383.705 90.2986C383.705 91.0391 383.705 91.568 383.6 91.8853C383.6 92.0969 383.6 92.2026 383.6 92.3084V92.4142C383.6 92.9431 383.915 93.472 384.441 93.472C385.282 93.5778 385.703 93.2604 385.703 92.7315Z" fill="#2D221C"/>
<path d="M336.082 66.9211C336.292 69.7772 334.19 72.2101 331.456 72.4217C328.618 72.6333 326.2 70.5176 325.99 67.7674C325.78 64.9113 327.882 62.4783 330.615 62.2668C333.454 62.0552 335.872 64.1708 336.082 66.9211Z" fill="#2D221C"/>
<path d="M373.823 57.9299C374.033 60.786 371.931 63.2189 369.197 63.4305C366.359 63.6421 363.941 61.5264 363.731 58.7762C363.52 55.9201 365.623 53.4871 368.356 53.2756C371.195 53.064 373.613 55.1796 373.823 57.9299Z" fill="#2D221C"/>
<path d="M377.503 144.67C377.713 147.103 376.872 149.43 375.4 151.122C373.928 152.815 371.826 153.978 369.408 154.19C366.99 154.401 364.677 153.555 362.995 152.074C361.313 150.593 360.156 148.478 359.946 146.045C359.841 145.198 359.105 144.458 358.264 144.564C357.423 144.67 356.687 145.41 356.792 146.256C357.213 152.92 362.995 157.892 369.618 157.469C376.241 157.046 381.182 151.228 380.762 144.564C380.656 143.718 379.921 142.977 379.079 143.083C378.133 142.977 377.503 143.823 377.503 144.67Z" fill="#744E32"/>
<path d="M467.703 60.5744C471.592 37.1969 467.913 19.9547 455.087 17.7333C442.262 15.6177 425.336 29.8981 421.446 53.3813C417.556 76.7588 436.585 101.406 441.105 102.463C444.995 103.31 463.813 83.9518 467.703 60.5744Z" fill="white" fill-opacity="0.8"/>
<path d="M491.356 103.521C507.441 96.2222 516.587 86.702 512.592 77.8165C508.597 68.9309 492.618 64.1708 476.533 71.4696C460.449 78.7685 453.09 100.982 454.351 104.262C455.403 107.012 475.272 110.82 491.356 103.521Z" fill="#EEE7E0" fill-opacity="0.8"/>
<path d="M375.505 179.048C375.715 177.99 376.767 177.25 377.818 177.461C377.923 177.461 380.341 177.99 382.864 177.567C384.126 177.356 385.492 176.933 386.544 176.298C387.595 175.557 388.541 174.605 389.172 173.124C389.592 172.067 390.749 171.644 391.8 172.067C392.851 172.49 393.272 173.653 392.851 174.711C391.905 177.038 390.328 178.731 388.541 179.789C387.28 180.635 385.808 181.058 384.546 181.375C382.549 181.798 380.656 181.798 379.29 181.693C377.923 181.587 376.977 181.375 376.872 181.375C375.926 181.164 375.19 180.106 375.505 179.048Z" fill="#2D221C"/>
</g>
<g filter="url(#filter2_d)">
<path d="M91.1709 544.046C107.379 564.182 133.596 572.044 159.46 567.197C169.626 565.27 179.87 561.469 189.33 555.613C192.69 553.593 195.949 551.26 199.036 548.752C204.307 544.492 208.89 539.879 212.887 534.879C235.582 506.569 238.187 468.054 217.137 441.87C196.91 416.804 161.046 410.7 129.646 424.631C122.514 427.764 115.619 431.976 109.272 437.164C107.191 438.882 105.213 440.566 103.304 442.459C94.8354 450.65 88.3304 459.934 83.8606 469.825C72.7194 494.831 74.4468 523.384 91.1709 544.046Z" fill="#FFC702"/>
<path d="M139.453 511.094C152.193 526.93 166.534 540.281 181.478 550.546C184.129 552.34 186.746 554.028 189.33 555.613C192.69 553.593 195.949 551.26 199.036 548.752C204.307 544.492 208.89 539.879 212.887 534.879C206.408 531.56 199.899 527.442 193.359 522.526C182.585 514.483 172.028 504.29 162.413 492.404C151.424 478.769 142.927 464.323 137.225 450.353C133.71 441.33 131.127 432.698 129.646 424.631C122.514 427.764 115.619 431.975 109.272 437.164C107.191 438.882 105.213 440.566 103.304 442.459C105.612 450.95 108.749 459.518 112.681 468.057C119.415 482.732 128.396 497.251 139.453 511.094Z" fill="#453C36"/>
<path d="M91.1708 544.046C107.379 564.182 133.596 572.044 159.46 567.196C154.775 564.448 150.092 561.353 145.41 557.911C134.636 549.868 124.08 539.675 114.465 527.788C103.476 514.154 94.9781 499.708 89.2764 485.737C87.0571 480.337 85.2172 475.044 83.8606 469.825C72.7194 494.831 74.4468 523.384 91.1708 544.046Z" fill="#453C36"/>
<path d="M184.142 463.947C185.153 469.163 183.472 473.87 180.326 474.434C177.179 474.997 173.811 471.357 172.8 466.141C171.789 460.925 173.47 456.217 176.616 455.654C179.729 454.986 183.131 458.73 184.142 463.947Z" fill="#744E32"/>
<path d="M218.94 454.8C219.951 460.017 218.27 464.724 215.158 465.392C212.011 465.955 208.643 462.316 207.632 457.099C206.621 451.883 208.302 447.175 211.448 446.612C214.527 445.84 217.929 449.584 218.94 454.8Z" fill="#744E32"/>
<path d="M86.7523 529.079L75.5972 549.815C74.9643 552.101 76.8534 554.374 79.2034 554.185L101.763 546.948L86.7523 529.079Z" fill="#453C36"/>
<path d="M189.362 420.42C189.362 420.42 189.846 413.098 192.579 405.275C193.945 401.364 195.934 397.249 198.714 393.801C201.495 390.353 205.204 387.642 209.978 386.433C210.081 386.399 210.185 386.365 210.289 386.331C210.808 386.162 211.393 386.549 211.46 387.105C211.63 387.627 211.247 388.214 210.694 388.279C210.59 388.313 210.59 388.313 210.486 388.347C206.232 389.387 202.904 391.858 200.367 394.996C196.509 399.719 194.233 406.123 192.93 411.284C192.295 413.918 191.974 416.102 191.724 417.801C191.651 418.634 191.509 419.258 191.542 419.709C191.506 419.952 191.54 420.056 191.47 420.195L191.504 420.299C191.467 420.889 191.016 421.267 190.429 421.227C189.702 421.464 189.324 421.009 189.362 420.42Z" fill="#2D221C"/>
<path d="M166.413 429.632C166.413 429.632 165.012 426.391 163.896 421.556C162.777 417.068 161.908 411.228 162.419 405.399C162.744 402.521 163.311 399.678 164.602 396.947C165.79 394.249 167.633 391.8 170.061 389.737C170.512 389.359 171.133 389.503 171.477 389.853C171.854 390.308 171.713 390.932 171.366 391.276C169.111 393.166 167.512 395.305 166.464 397.726C164.788 401.392 164.284 405.485 164.368 409.617C164.452 413.749 165.158 417.678 166.006 420.984C166.547 423.349 167.16 425.229 167.602 426.587C167.841 427.318 168.011 427.841 168.217 428.12C168.285 428.329 168.319 428.433 168.353 428.538L168.387 428.642C168.557 429.164 168.416 429.788 167.897 429.957C167.101 430.332 166.583 430.154 166.413 429.632Z" fill="#2D221C"/>
<path d="M207.102 388.179C207.813 391.067 210.672 392.792 213.439 392.121C216.31 391.417 218.017 388.55 217.339 385.767C216.628 382.879 213.769 381.153 211.002 381.824C208.131 382.529 206.424 385.396 207.102 388.179Z" fill="#2D221C"/>
<path d="M166.943 391.447C167.655 394.334 170.514 396.06 173.281 395.389C176.152 394.685 177.858 391.818 177.181 389.034C176.469 386.147 173.61 384.421 170.843 385.092C167.972 385.796 166.266 388.663 166.943 391.447Z" fill="#2D221C"/>
<path d="M191.224 478.276C191.799 480.746 193.378 482.773 195.376 483.971C197.374 485.168 199.825 485.64 202.28 485.071C204.736 484.502 206.747 482.922 207.931 480.919C209.116 478.915 209.577 476.454 209.001 473.984C208.833 473.115 209.321 472.147 210.186 471.98C211.05 471.814 212.015 472.309 212.183 473.178C213.913 479.893 209.804 486.663 203.128 488.377C196.452 490.09 189.701 485.936 187.972 479.22C187.803 478.351 188.292 477.383 189.156 477.217C190.056 476.808 190.951 477.44 191.224 478.276Z" fill="#744E32"/>
<path d="M75.0989 424.268C63.7352 402.438 61.8196 384.229 73.7686 377.908C85.7516 371.692 107.059 380.345 118.457 402.28C129.821 424.111 118.964 454.571 114.841 457.07C111.273 459.157 86.4627 446.099 75.0989 424.268Z" fill="#F7F4EF" fill-opacity="0.8"/>
<path d="M65.5639 474.286C47.3334 472.255 35.2389 465.798 36.3239 455.739C37.409 445.68 51.655 435.838 69.8856 437.869C88.1162 439.899 102.531 459.465 102.341 463.109C102.188 466.162 83.7945 476.317 65.5639 474.286Z" fill="#D5CCC4" fill-opacity="0.8"/>
</g>
<g filter="url(#filter3_d)">
<ellipse cx="217.35" cy="502.968" rx="31.9598" ry="14.084" transform="rotate(-52.7742 217.35 502.968)" fill="#DBDBDB"/>
<path fill-rule="evenodd" clip-rule="evenodd" d="M228.564 511.488C238.512 498.395 242.347 484.3 237.818 478.629L279.534 516.929C279.693 517.016 279.845 517.115 279.99 517.225C284.278 520.483 280.565 532.586 271.696 544.258C262.828 555.931 252.163 562.752 247.875 559.495C247.731 559.385 247.595 559.265 247.468 559.135L199.388 529.212C206.066 532.055 218.616 524.581 228.564 511.488ZM236.253 477.192L236.355 477.286C236.316 477.261 236.278 477.235 236.238 477.211L236.253 477.192ZM197.584 528.089L197.598 528.07C197.632 528.101 197.666 528.132 197.701 528.162L197.584 528.089Z" fill="#F2F2F2"/>
</g>
<path d="M204.259 511.578C203.711 510.602 202.435 510.209 201.465 510.756C201.361 510.79 199.144 512.09 196.517 512.484C195.203 512.682 193.717 512.704 192.475 512.415C191.199 512.022 189.958 511.387 188.859 510.128C188.103 509.218 186.825 509.173 185.923 509.929C185.021 510.685 184.981 511.969 185.736 512.878C187.419 514.872 189.521 516.035 191.626 516.505C193.144 516.934 194.733 516.878 196.081 516.786C198.19 516.561 200.058 515.952 201.373 515.408C202.689 514.863 203.555 514.35 203.659 514.316C204.525 513.803 204.911 512.521 204.259 511.578Z" fill="#2D221C"/>
<g filter="url(#filter4_d)">
<path fill-rule="evenodd" clip-rule="evenodd" d="M380.523 196.875C380.861 196.654 381.169 196.395 381.442 196.098C381.512 196.023 381.579 195.945 381.643 195.866L381.721 195.795L381.708 195.783C385.218 191.248 380.465 180.665 370.84 171.8C360.985 162.724 349.753 158.886 345.753 163.229C345.479 163.527 345.247 163.854 345.054 164.21L318.495 199.055L347.977 226.207L380.523 196.875ZM346.032 162.927L346.045 162.939C346.019 162.962 345.993 162.986 345.968 163.01L346.032 162.927Z" fill="#EFEFEF"/>
<ellipse cx="333.515" cy="212.329" rx="20.1476" ry="7.40116" transform="rotate(42.6438 333.515 212.329)" fill="#CECECE"/>
</g>
<g filter="url(#filter5_d)">
<path fill-rule="evenodd" clip-rule="evenodd" d="M160.349 121.062C170.714 119.354 178.506 114.267 177.754 109.699C177.741 109.62 177.725 109.541 177.707 109.463L177.701 109.381L177.688 109.383C176.58 105.026 167.747 102.853 157.624 104.521C147.501 106.189 139.832 111.081 140.181 115.564L140.167 115.566L140.188 115.645C140.196 115.725 140.206 115.804 140.219 115.884C140.972 120.451 149.984 122.77 160.349 121.062ZM160.349 121.062C170.005 119.471 177.428 114.947 177.79 110.643L180.203 144.908L149.196 150.017L140.488 116.789C142.211 120.75 150.694 122.653 160.349 121.062Z" fill="#EFEFEF"/>
<ellipse cx="164.647" cy="147.145" rx="15.7964" ry="5.80277" transform="rotate(-9.35684 164.647 147.145)" fill="#CECECE"/>
</g>
<path d="M390.291 468.766C391.021 472.053 391.277 480.012 386.457 485.555" stroke="white"/>
<path d="M397.44 470.77C398.17 474.056 398.425 482.015 393.606 487.558" stroke="white"/>
<path d="M267.313 289.742C265.344 292.473 261.967 299.684 264.206 306.68" stroke="white"/>
<path d="M259.954 288.76C257.985 291.491 254.608 298.703 256.847 305.698" stroke="white"/>
<path d="M166.241 255.915C166.693 259.252 169.207 266.807 175.647 270.341" stroke="white"/>
<path d="M160.227 260.269C160.679 263.605 163.193 271.161 169.633 274.694" stroke="white"/>
<path d="M333.441 212.602C311.53 223.602 227.869 321.603 313.024 363.104C419.968 415.224 403.158 556.606 265.218 540.606" stroke="white"/>
<path d="M165.167 148.023C185.437 152.683 155.631 195.478 178.126 248.868C201.054 303.284 250.898 292.8 289.776 347.216" stroke="white"/>
<ellipse cx="263.933" cy="538.36" rx="26.5429" ry="9.75044" transform="rotate(-52.7742 263.933 538.36)" fill="#F2F2F2"/>
<path d="M174.525 117.557C174.444 117.144 174.718 116.738 175.124 116.672C175.146 116.664 176.079 116.473 176.942 115.969C177.377 115.71 177.786 115.382 178.076 114.982C178.366 114.583 178.536 114.112 178.546 113.494C178.541 113.078 178.88 112.738 179.312 112.741C179.729 112.736 180.069 113.075 180.066 113.507C180.073 114.471 179.749 115.289 179.285 115.913C178.944 116.384 178.515 116.759 178.097 117.064C177.447 117.512 176.797 117.789 176.288 117.96C175.779 118.13 175.427 118.201 175.405 118.21C174.997 118.237 174.606 117.97 174.525 117.557Z" fill="#2D221C"/>
<path d="M217.63 509.214C218.114 505.883 220.699 498.351 227.172 494.878" stroke="#BABABA"/>
<path d="M211.658 504.804C212.141 501.472 214.726 493.941 221.199 490.468" stroke="#BABABA"/>
<defs>
<filter id="filter0_d" x="41.9035" y="26.5706" width="196.404" height="159.711" filterUnits="userSpaceOnUse" color-interpolation-filters="sRGB">
<feFlood flood-opacity="0" result="BackgroundImageFix"/>
<feColorMatrix in="SourceAlpha" type="matrix" values="0 0 0 0 0 0 0 0 0 0 0 0 0 0 0 0 0 0 127 0"/>
<feOffset dx="-5" dy="10"/>
<feGaussianBlur stdDeviation="11.5"/>
<feColorMatrix type="matrix" values="0 0 0 0 0.133333 0 0 0 0 0.133333 0 0 0 0 0.133333 0 0 0 0.15 0"/>
<feBlend mode="normal" in2="BackgroundImageFix" result="effect1_dropShadow"/>
<feBlend mode="normal" in="SourceGraphic" in2="effect1_dropShadow" result="shape"/>
</filter>
<filter id="filter1_d" x="303.975" y="0.526611" width="259.551" height="271.767" filterUnits="userSpaceOnUse" color-interpolation-filters="sRGB">
<feFlood flood-opacity="0" result="BackgroundImageFix"/>
<feColorMatrix in="SourceAlpha" type="matrix" values="0 0 0 0 0 0 0 0 0 0 0 0 0 0 0 0 0 0 127 0"/>
<feOffset dx="14" dy="19"/>
<feGaussianBlur stdDeviation="18"/>
<feColorMatrix type="matrix" values="0 0 0 0 0.133333 0 0 0 0 0.133333 0 0 0 0 0.133333 0 0 0 0.2 0"/>
<feBlend mode="normal" in2="BackgroundImageFix" result="effect1_dropShadow"/>
<feBlend mode="normal" in="SourceGraphic" in2="effect1_dropShadow" result="shape"/>
</filter>
<filter id="filter2_d" x="0.256424" y="363.944" width="253.261" height="250.642" filterUnits="userSpaceOnUse" color-interpolation-filters="sRGB">
<feFlood flood-opacity="0" result="BackgroundImageFix"/>
<feColorMatrix in="SourceAlpha" type="matrix" values="0 0 0 0 0 0 0 0 0 0 0 0 0 0 0 0 0 0 127 0"/>
<feOffset dx="-7" dy="17"/>
<feGaussianBlur stdDeviation="14.5"/>
<feColorMatrix type="matrix" values="0 0 0 0 0.133333 0 0 0 0 0.133333 0 0 0 0 0.133333 0 0 0 0.17 0"/>
<feBlend mode="normal" in2="BackgroundImageFix" result="effect1_dropShadow"/>
<feBlend mode="normal" in="SourceGraphic" in2="effect1_dropShadow" result="shape"/>
</filter>
<filter id="filter3_d" x="184.995" y="476.124" width="118.778" height="116.184" filterUnits="userSpaceOnUse" color-interpolation-filters="sRGB">
<feFlood flood-opacity="0" result="BackgroundImageFix"/>
<feColorMatrix in="SourceAlpha" type="matrix" values="0 0 0 0 0 0 0 0 0 0 0 0 0 0 0 0 0 0 127 0"/>
<feOffset dx="6" dy="16"/>
<feGaussianBlur stdDeviation="8"/>
<feColorMatrix type="matrix" values="0 0 0 0 0.133333 0 0 0 0 0.133333 0 0 0 0 0.133333 0 0 0 0.15 0"/>
<feBlend mode="normal" in2="BackgroundImageFix" result="effect1_dropShadow"/>
<feBlend mode="normal" in="SourceGraphic" in2="effect1_dropShadow" result="shape"/>
</filter>
<filter id="filter4_d" x="296.681" y="146.366" width="115.004" height="116.056" filterUnits="userSpaceOnUse" color-interpolation-filters="sRGB">
<feFlood flood-opacity="0" result="BackgroundImageFix"/>
<feColorMatrix in="SourceAlpha" type="matrix" values="0 0 0 0 0 0 0 0 0 0 0 0 0 0 0 0 0 0 127 0"/>
<feOffset dx="3" dy="11"/>
<feGaussianBlur stdDeviation="10"/>
<feColorMatrix type="matrix" values="0 0 0 0 0.0666667 0 0 0 0 0.0666667 0 0 0 0 0.0666667 0 0 0 0.25 0"/>
<feBlend mode="normal" in2="BackgroundImageFix" result="effect1_dropShadow"/>
<feBlend mode="normal" in="SourceGraphic" in2="effect1_dropShadow" result="shape"/>
</filter>
<filter id="filter5_d" x="121.857" y="92.4287" width="84.61" height="94.0097" filterUnits="userSpaceOnUse" color-interpolation-filters="sRGB">
<feFlood flood-opacity="0" result="BackgroundImageFix"/>
<feColorMatrix in="SourceAlpha" type="matrix" values="0 0 0 0 0 0 0 0 0 0 0 0 0 0 0 0 0 0 127 0"/>
<feOffset dx="3" dy="11"/>
<feGaussianBlur stdDeviation="10"/>
<feColorMatrix type="matrix" values="0 0 0 0 0.0666667 0 0 0 0 0.0666667 0 0 0 0 0.0666667 0 0 0 0.25 0"/>
<feBlend mode="normal" in2="BackgroundImageFix" result="effect1_dropShadow"/>
<feBlend mode="normal" in="SourceGraphic" in2="effect1_dropShadow" result="shape"/>
</filter>
</defs>
</svg>
