<svg width="52" height="56" viewBox="0 0 52 56" fill="none" xmlns="http://www.w3.org/2000/svg">
<path d="M45.1244 43.6687C42.676 50.121 36.6715 54.2856 29.7053 55.1948C26.9654 55.5467 24.0506 55.4294 21.165 54.7255C20.1448 54.4909 19.1247 54.1683 18.1336 53.787C16.4431 53.1418 14.8983 52.3499 13.47 51.4114C5.36697 46.103 1.51948 36.5419 4.69657 28.1539C7.75707 20.1179 16.3556 15.6013 25.4788 16.5398C27.5483 16.7451 29.647 17.2437 31.6873 18.0356C32.3577 18.2995 32.9989 18.5635 33.6402 18.8861C36.4675 20.2646 38.8868 22.0829 40.8397 24.2239C45.7365 29.6497 47.6602 37.0405 45.1244 43.6687Z" fill="#FFC702"/>
<path d="M30.1427 39.2985C28.219 44.3723 25.6832 48.9475 22.7392 52.7896C22.2146 53.4641 21.6899 54.1094 21.1653 54.7253C20.1451 54.4906 19.1249 54.168 18.1339 53.7867C16.4433 53.1415 14.8985 52.3496 13.4703 51.4111C14.8402 50.0327 16.1519 48.449 17.4052 46.6599C19.4747 43.7271 21.311 40.2663 22.7684 36.4536C24.4298 32.0837 25.3917 27.7137 25.6832 23.6957C25.8289 21.1148 25.7706 18.7099 25.4791 16.5396C27.5486 16.7449 29.6472 17.2434 31.6876 18.0353C32.358 18.2993 32.9992 18.5632 33.6405 18.8858C33.7571 21.2321 33.6696 23.6664 33.3781 26.1593C32.8826 30.4413 31.8042 34.8699 30.1427 39.2985Z" fill="#453C36"/>
<path d="M45.1244 43.6689C42.676 50.1212 36.6715 54.2858 29.7053 55.195C30.6671 54.1098 31.5998 52.9367 32.5034 51.6756C34.5729 48.7427 36.4092 45.282 37.8666 41.4693C39.528 37.0993 40.4899 32.7294 40.7814 28.7114C40.898 27.157 40.9271 25.6612 40.8397 24.2241C45.7365 29.6499 47.6602 37.0407 45.1244 43.6689Z" fill="#453C36"/>
<path d="M14.8984 31.0282C15.0733 32.436 15.8895 33.4918 16.7347 33.3745C17.58 33.2572 18.1338 32.0547 17.9589 30.6469C17.784 29.2392 16.9679 28.1833 16.1226 28.3007C15.2774 28.3886 14.7236 29.6204 14.8984 31.0282Z" fill="#744E32"/>
<path d="M5.30883 31.5855C5.48371 32.9933 6.29985 34.0491 7.14513 33.9612C7.99041 33.8438 8.54422 32.6414 8.36933 31.2336C8.19445 29.8258 7.37831 28.77 6.53303 28.8873C5.68775 28.946 5.13394 30.1778 5.30883 31.5855Z" fill="#744E32"/>
<path d="M45.0079 39.5042L49.555 43.8448C49.9047 44.3727 49.6133 45.1059 49.0012 45.2525L42.6761 45.2819L45.0079 39.5042Z" fill="#453C36"/>
<path d="M9.97247 20.4111C9.97247 20.4111 9.24378 18.5928 7.90299 16.833C7.23259 15.9532 6.38731 15.0733 5.39629 14.4281C4.40527 13.7829 3.23936 13.4016 1.92772 13.4896C1.89857 13.4896 1.86942 13.4896 1.84028 13.4896C1.69454 13.4896 1.57795 13.6362 1.6071 13.7829C1.6071 13.9295 1.75284 14.0468 1.89858 14.0175C1.92772 14.0175 1.92772 14.0175 1.95687 14.0175C3.12278 13.9295 4.17209 14.2815 5.07567 14.868C6.44561 15.7479 7.55322 17.185 8.31106 18.3875C8.68998 19.0034 8.9523 19.5313 9.15634 19.9419C9.24378 20.1472 9.33122 20.2938 9.36037 20.4111C9.38952 20.4698 9.38952 20.4991 9.41866 20.5284V20.5578C9.47696 20.7044 9.6227 20.7631 9.76844 20.7044C9.97247 20.7044 10.0308 20.5578 9.97247 20.4111Z" fill="#2D221C"/>
<path d="M16.5598 20.851C16.5598 20.851 16.6473 19.9125 16.5307 18.5927C16.4432 17.3609 16.1809 15.8065 15.5688 14.3694C15.2482 13.6656 14.8693 12.991 14.3155 12.4044C13.7908 11.8179 13.1204 11.3486 12.3334 11.026C12.1877 10.9673 12.0419 11.0553 11.9836 11.1726C11.9254 11.3193 12.0128 11.4659 12.1294 11.5246C12.8581 11.8179 13.441 12.2285 13.9074 12.7564C14.6361 13.5482 15.1024 14.5454 15.4231 15.6012C15.7437 16.6571 15.8894 17.7129 15.9477 18.6221C16.006 19.2673 16.006 19.7952 16.006 20.1765C16.006 20.3818 16.006 20.5284 15.9769 20.6164C15.9769 20.6751 15.9769 20.7044 15.9769 20.7337V20.7631C15.9769 20.9097 16.0643 21.0563 16.2101 21.0563C16.4432 21.0857 16.5598 20.9977 16.5598 20.851Z" fill="#2D221C"/>
<path d="M2.80213 13.6951C2.86043 14.487 2.27748 15.1616 1.51964 15.2202C0.732656 15.2789 0.062263 14.6923 0.00396776 13.9298C-0.0543272 13.1379 0.528622 12.4633 1.28646 12.4047C2.07344 12.346 2.74384 12.9326 2.80213 13.6951Z" fill="#2D221C"/>
<path d="M13.2661 11.2022C13.3244 11.9941 12.7415 12.6686 11.9836 12.7273C11.1966 12.786 10.5262 12.1994 10.4679 11.4368C10.4096 10.645 10.9926 9.97042 11.7504 9.91176C12.5374 9.8531 13.2078 10.4397 13.2661 11.2022Z" fill="#2D221C"/>
<path d="M14.2863 35.2513C14.3446 35.9259 14.1114 36.5711 13.7033 37.0404C13.2953 37.5096 12.7123 37.8322 12.0419 37.8909C11.3715 37.9495 10.7303 37.7149 10.2639 37.3043C9.79754 36.8937 9.47692 36.3072 9.41862 35.6326C9.38947 35.398 9.18544 35.1927 8.95226 35.222C8.71908 35.2513 8.51504 35.4566 8.54419 35.6913C8.66078 37.5389 10.2639 38.9174 12.1002 38.8001C13.9365 38.6828 15.3064 37.0697 15.1899 35.222C15.1607 34.9874 14.9567 34.7821 14.7235 34.8114C14.4612 34.7821 14.2863 35.0167 14.2863 35.2513Z" fill="#744E32"/>
<path d="M39.2951 11.9354C40.3736 5.45375 39.3534 0.67321 35.7974 0.0573121C32.2414 -0.529258 27.5486 3.43009 26.4701 9.94101C25.3917 16.4226 30.6674 23.2561 31.9207 23.5494C32.9992 23.7841 38.2166 18.4169 39.2951 11.9354Z" fill="#F7F4EF" fill-opacity="0.8"/>
<path d="M45.8533 23.8427C50.3128 21.819 52.8487 19.1795 51.7411 16.7159C50.6335 14.2523 46.203 12.9325 41.7434 14.9562C37.2838 16.9798 35.2435 23.1388 35.5933 24.048C35.8848 24.8106 41.3937 25.8664 45.8533 23.8427Z" fill="#D5CCC4" fill-opacity="0.8"/>
<path d="M13.7324 44.7831C13.7907 44.4898 14.0822 44.2845 14.3736 44.3432C14.4028 44.3432 15.0732 44.4898 15.7727 44.3725C16.1225 44.3139 16.5014 44.1966 16.7929 44.0206C17.0844 43.8153 17.3467 43.5513 17.5216 43.1407C17.6382 42.8474 17.9588 42.7301 18.2503 42.8474C18.5417 42.9648 18.6583 43.2874 18.5417 43.5807C18.2794 44.2259 17.8422 44.6951 17.3467 44.9884C16.9969 45.2231 16.5889 45.3404 16.2391 45.4284C15.6853 45.5457 15.1606 45.5457 14.7817 45.5163C14.4028 45.487 14.1405 45.4284 14.1113 45.4284C13.849 45.3697 13.6449 45.0764 13.7324 44.7831Z" fill="#2D221C"/>
</svg>
