<svg width="20" height="20" viewBox="0 0 20 20" fill="none" xmlns="http://www.w3.org/2000/svg">
<g clip-path="url(#clip0)">
<path d="M18.125 2.50024H1.87501C0.841067 2.50024 0 3.34131 0 4.37526V15.6253C0 16.6592 0.841067 17.5003 1.87501 17.5003H18.125C19.1589 17.5003 20 16.6592 20 15.6253V4.37526C20 3.34131 19.1589 2.50024 18.125 2.50024ZM18.125 3.75024C18.2099 3.75024 18.2907 3.76786 18.3645 3.79863L10 11.0482L1.63542 3.79863C1.70927 3.7679 1.79005 3.75024 1.87497 3.75024H18.125ZM18.125 16.2502H1.87501C1.53017 16.2502 1.24999 15.9701 1.24999 15.6252V5.11926L9.59045 12.3477C9.70826 12.4496 9.85413 12.5002 10 12.5002C10.1459 12.5002 10.2917 12.4496 10.4096 12.3477L18.75 5.11926V15.6253C18.75 15.9701 18.4698 16.2502 18.125 16.2502Z" fill="#FF9900"/>
</g>
<defs>
<clipPath id="clip0">
<rect width="20" height="20" fill="white"/>
</clipPath>
</defs>
</svg>
